<svg xmlns="http://www.w3.org/2000/svg" viewBox="0 0 362 98"><defs/><g fill="#11110F" fill-rule="nonzero"><path d="M70.3 42H40c-.8 0-1.4.6-1.4 1.4v14.8c0 .8.6 1.4 1.4 1.4h11.8V78s-2.6 1-10 1c-8.6 0-20.7-3.3-20.7-29.8 0-26.6 12.6-30 24.4-30 10.2 0 14.6 1.7 17.4 2.6 1 .3 1.7-.6 1.7-1.4L68 6.1c0-.4-.1-.8-.5-1.1C66.3 4.2 59.4.3 41.8.3 21.6.3 1 8.9 1 50.3c0 41.2 23.7 47.4 43.7 47.4 16.6 0 26.6-7 26.6-7 .5-.3.5-.9.5-1.1V43.4c0-.8-.6-1.4-1.4-1.4M226.3 5.2c0-.7-.7-1.4-1.4-1.4h-17c-.9 0-1.5.7-1.5 1.4v33h-26.6v-33c0-.7-.6-1.4-1.4-1.4h-17c-.8 0-1.4.7-1.4 1.4v89.2c0 .8.6 1.5 1.4 1.5h17c.8 0 1.4-.7 1.4-1.5V56.3h26.6v38.1c0 .8.6 1.5 1.4 1.5h17c.8 0 1.5-.7 1.5-1.5V5.2M102.4 17a11 11 0 00-11-11.1 11 11 0 000 22.2c6.1 0 11-5 11-11.1M101.2 75.6V34.5c0-.8-.6-1.5-1.4-1.5h-17c-.8 0-1.5.8-1.5 1.6v59c0 1.7 1.1 2.2 2.5 2.2h15.3c1.7 0 2.1-.8 2.1-2.2v-18M291 33.2h-16.9c-.8 0-1.4.6-1.4 1.4v43.7s-4.3 3.2-10.4 3.2c-6 0-7.7-2.8-7.7-8.8V34.6c0-.8-.6-1.4-1.4-1.4H236c-.7 0-1.4.6-1.4 1.4v41c0 17.7 10 22 23.5 22 11.2 0 20.2-6 20.2-6s.4 3.2.6 3.6c.2.3.7.7 1.2.7h11c.7 0 1.3-.7 1.3-1.4v-60c0-.7-.6-1.3-1.4-1.3M330.6 81.4c-5.9-.2-9.9-2.8-9.9-2.8V50.3s4-2.4 8.8-2.8c6-.6 12 1.3 12 15.8 0 15.3-2.7 18.4-11 18.1zm6.7-50.2c-9.7 0-16.2 4.2-16.2 4.2V5.2c0-.7-.6-1.4-1.4-1.4h-17c-.9 0-1.5.7-1.5 1.4v89.2c0 .8.6 1.5 1.4 1.5h11.9c.5 0 1-.3 1.2-.8.3-.5.7-4.1.7-4.1s7 6.6 20.3 6.6c15.5 0 24.4-7.9 24.4-35.4 0-27.4-14.2-31-23.8-31zM150.2 33h-12.8V16.1c0-.6-.3-1-1-1h-17.5c-.7 0-1 .4-1 1v17.5s-8.8 2-9.4 2.3c-.5.1-1 .7-1 1.3v11c0 .8.7 1.4 1.4 1.4h9V76c0 19.6 13.7 21.5 23 21.5 4.2 0 9.3-1.4 10.1-1.7.5-.1.8-.7.8-1.2V82.5c0-.8-.6-1.4-1.4-1.4-.7 0-2.6.3-4.6.3-6.3 0-8.4-3-8.4-6.7V49.6h12.8c.8 0 1.4-.6 1.4-1.4V34.4c0-.7-.6-1.4-1.4-1.4"/></g></svg>