<svg xmlns="http://www.w3.org/2000/svg" viewBox="0 0 516 132"><defs/><g fill="none" fill-rule="nonzero"><path fill="#1A1919" d="M0 19.8h20.2v73.5h37.3v18.6H0V19.8M76 18.5A11.2 11.2 0 1176 41a11.2 11.2 0 010-22.5zm-9.6 93.3h19.3V49.5H66.5v62.3zM166.7 19.8h19.4v55L208 49.5h23.8l-25.4 28.8 24.9 33.6h-24.4L186.3 81h-.2v30.9h-19.4V19.8M96.5 49.5H115V58h.2c2.6-4.9 9-10 18.4-10 19.6 0 23.2 12.9 23.2 29.6v34.2h-19.4V81.5c0-7.2-.1-16.5-10-16.5-10.1 0-11.7 7.9-11.7 16v30.8H96.5V49.5"/><path fill="#1A1919" d="M289 101a34.1 34.1 0 01-26.5 12.4c-19.4 0-34.9-12.9-34.9-32.9s15.5-33 34.9-33c18 0 29.4 13 29.4 33v6h-45a14.5 14.5 0 0014.7 12.2c6.3 0 10.6-3.2 13.8-7.6l13.6 10zm-16.4-27.6c0-6.4-5-11.9-12-11.9-8.4 0-13 5.8-13.6 12h25.6zM365.6 111.8h-17.8v-8.2h-.3c-3 4.5-10.4 9.8-19.2 9.8-18.6 0-30.9-13.4-30.9-32.4 0-17.5 10.9-33.5 28.7-33.5 8 0 15.5 2.2 19.9 8.3h.2v-36h19.4v92zm-33.3-47.2c-9.7 0-15.5 6.4-15.5 15.8 0 9.5 5.8 16 15.5 16s15.5-6.5 15.5-16c0-9.4-5.8-15.8-15.5-15.8z"/><path fill="#0071A1" d="M506 .5H394.6A9.5 9.5 0 00385 10v111.9c0 5.2 4.3 9.4 9.6 9.4H506c5.3 0 9.7-4.2 9.7-9.4V9.9c0-5.2-4.4-9.4-9.7-9.4"/><path fill="#FFFFFE" d="M414 18.5a11.2 11.2 0 110 22.5 11.2 11.2 0 010-22.5zm-9.6 93.4h19.4V49.5h-19.4V112zM436 49.5h18.5V58h.3c2.5-4.9 8.9-10 18.3-10 19.6 0 23.2 12.9 23.2 29.7v34.2H477V81.5c0-7.2-.2-16.5-10.1-16.5-10 0-11.6 7.9-11.6 16V112h-19.4V49.5"/></g></svg>