<svg xmlns="http://www.w3.org/2000/svg" aria-label="Mixcloud Logo" class="Logo__LogoMediumOnDark-sc-1wzvhm1-1 kJVWrv no-color-cascade-svg" viewBox="0 0 170 20"><defs/><path fill="#1E2337" fill-rule="evenodd" d="M169.8 10c0-8.4-5.2-9.7-10.2-9.7h-6.8v19.4h6.8c5 0 10.2-1.4 10.2-9.7zm-3.5 0c0 6.2-3.3 6.6-6.7 6.6h-1.7c-.7 0-1 0-1.3.3l-.8.5-.6-.7.4-.2.7-.8V5a1.8 1.8 0 00-.7-1.5l-.4-.2.6-.6.8.4a1.6 1.6 0 00.8.3h2.2c3.4 0 6.7.4 6.7 6.6zm-16.7 2.5V.3H146V11c0 3.7-.7 5.8-4.7 5.8s-4.8-2-4.8-5.8V.3h-3.6v12.2c0 4.8 2.8 7.4 8.4 7.4 5.5 0 8.3-2.6 8.3-7.4zM130.2 10c0-5.7-3.6-10-9.5-10-6 0-9.6 4.3-9.6 10 0 5.6 3.6 10 9.6 10 5.9 0 9.5-4.4 9.5-10zm-3.6 0c0 4-2 6.9-6 6.9s-6-2.8-6-7c0-4 2-6.8 6-6.8s6 2.8 6 6.9zM94.7 20l14.2-2.5V14l-13.7 2.4-.4-.5c.4-.1 1.4-.5 1.4-1.2V.3h-3.6v17.6c0 1.3.8 2 2.1 2zM74.3 10c0-4.3 2.2-7 6-7 3.2 0 5.3 1.7 5.7 4.8h3.6C89 3 85.6 0 80.3 0c-6 0-9.5 4.3-9.5 10 0 5.6 3.6 10 9.5 10 5.3 0 8.7-3 9.3-7.8H86c-.4 3-2.5 4.7-5.6 4.7-3.9 0-6.1-2.6-6.1-7zM59 13l9.2 6.6v-4.1L60.4 10l7.8-5.6v-4L59 7h-1L49 .4v4l7.7 5.6-7.8 5.5v4L58 13h1zm-32.6-1.3h19.4V8.2H26.4v3.5zm-7.2 8h3.5V.3h-7l-3.9 18.5h-.9L7 .3H0v19.4h3.5V3.5L3 1.2H4l4.1 18.5h6.5l4-18.5h1.2l-.7 2.3v16.2z"/></svg>