<svg xmlns="http://www.w3.org/2000/svg" viewBox="0 0 213 377.5" fill-rule="evenodd" clip-rule="evenodd" shape-rendering="geometricPrecision" text-rendering="geometricPrecision" image-rendering="optimizeQuality"><defs><style>.fil0,.fil1{fill:#000}</style></defs><path class="fil0" d="M203 250h2v17h-17v-17h3c-7-11 5-3 6-3 0 0 13-8 6 3z"/><path class="fil1" d="M60 193l-7 5-53 42h95v58h23v-58h48a224 224 0 01-100-77l-2 2-43 28h39zm55-100l-3-5h-5l2-4-2-4h5l3-5 2 5h5l-2 4 2 4h-5l-2 5zm-13 28l-3-5h-5l3-5-3-4h5l3-5 3 5h5l-2 4 2 5h-5l-3 5zm27 24l-2-5h-5l2-5-2-4h5l2-5 3 5h5l-2 4 2 5h-5l-3 5zm-45 17l-3-5h-5l3-5-3-4h5l3-5 3 5h5l-3 4 3 5h-5l-3 5zm23 27l-3-5h-5l3-4-3-4h5l3-5 3 5h5l-2 4 2 4h-5l-3 5zm35 2l-3-5h-5l2-5-2-4h5l3-5 3 5h5l-3 4 3 5h-5l-3 5zm-81 26l-3-5h-5l3-4-3-4h5l3-5 3 5h5l-2 4 2 4h-5l-3 5zm34 15l-3-5h-5l3-5-3-4h5l3-5 3 5h5l-2 4 2 5h-5l-3 5zm90 8h28l-53-41-7-6h39l-29-19c-27-9-50-21-69-37-8-8-16-16-23-26l-20 20h22l-1 1-12 9a206 206 0 00125 99zM55 146l-18 14h27l-9-14zm88 14h33l-35-28v-1h21l-28-28-7-7h12l-16-28-16-28-17 28-16 28h12l-7 7-3 4c6 9 14 18 23 25 12 11 27 21 44 28z"/><path class="fil0" d="M135 250h2v18h-17v-18h3c-8-11 5-2 5-2 1 0 13-8 7 2zM175 268h4v34h-34v-34h7c-15-22 9-5 10-5 2 0 26-15 13 5zM62 258h4v34H32v-34h6c-14-21 10-4 11-4 2 0 26-16 13 4z"/><path class="fil1" d="M107 41l-7-11H89l6-10-6-9h11l7-11 6 11h11l-6 9 6 10h-11z"/></svg>