<svg xmlns="http://www.w3.org/2000/svg" viewBox="0 0 2501 1426"><defs/><defs><linearGradient id="a" x1="50%" x2="50%" y1="0%" y2="100%"><stop offset="0%" stop-color="#F79810"/><stop offset="100%" stop-color="#F8310E"/></linearGradient></defs><path fill="url(#a)" fill-rule="nonzero" d="M28.8 650.2c-5.2 0-9.4 4-10 9.8L.5 798.8l18.3 136.5c.6 5.8 4.8 9.8 10 9.8 5 0 9.2-4 10-9.7l21.6-136.6L38.8 660c-.8-5.8-5-9.8-10-9.8zm102.8-75.9c-.9-6-5.1-10-10.4-10-5.3 0-9.7 4.2-10.4 10L86.2 798.8l24.6 219.6c.7 5.9 5 10.1 10.4 10.1 5.2 0 9.5-4.1 10.4-10l28-219.7-28-224.5zm387.3-207c-10.1 0-18.5 8.2-19 18.7l-19.5 413 19.6 267a19.3 19.3 0 0018.9 18.6c10 0 18.3-8.2 18.9-18.7v.1l22.1-267-22.1-413a19.4 19.4 0 00-19-18.8zM318.4 510.7c-7.7 0-14 6.2-14.7 14.4l-22 273.7 22 264.8a15 15 0 0014.7 14.4c7.7 0 14-6.2 14.7-14.4L358 799l-25-273.7c-.7-8.2-7-14.4-14.7-14.4zm404.2 573.8c12.5 0 22.6-10 23.1-23L765 799.2l-19.1-550c-.6-12.9-10.7-23-23.2-23a23.4 23.4 0 00-23.2 23l-17 550 17 262.5c.4 12.8 10.6 23 23.2 23zm417 1.3a32 32 0 0031.7-31.6v.2-.2l13.4-255-13.4-635.1a32 32 0 00-31.7-31.6 32 32 0 00-31.8 31.6l-12 635 12 255.2a32 32 0 0031.8 31.5zm-210.1-1c15 0 27-12 27.4-27.4v.2l16.3-258.5-16.3-554a27.6 27.6 0 00-27.5-27.2c-15 0-27.1 12-27.4 27.3l-14.5 554 14.5 258.4a27.5 27.5 0 0027.5 27.2zm-511.2-2.5c8.9 0 16-7 16.7-16.5l23.6-267L435 545a17 17 0 00-16.7-16.4 17 17 0 00-16.8 16.5l-20.8 254 20.8 267a17 17 0 0016.8 16.4zm-198.9-14.6c6.5 0 11.8-5.1 12.5-12.2l26.5-256.7L232 532.5c-.8-7.1-6-12.3-12.6-12.3s-11.9 5.2-12.5 12.3l-23.4 266.4 23.4 256.6c.6 7.2 5.9 12.3 12.5 12.3zm814.7-831.7c-16.3 0-29.3 12.9-29.6 29.5l-13.2 533.7 13.2 256.8a29.6 29.6 0 0059.2-.2v.2l14.8-256.8-14.8-533.8a29.7 29.7 0 00-29.6-29.4zm-413.8 849c11.3 0 20.5-9.1 21-20.8L662 799l-20.6-507.5a21.5 21.5 0 00-21-20.9 21.4 21.4 0 00-21.1 20.9L581 799l18.3 265.3a21.3 21.3 0 0021 20.8zm230.6-25v-.1l17.7-260.8L851 230.7a25.5 25.5 0 00-25.3-25.2c-13.8 0-25 11-25.3 25.2l-15.8 568.5 15.8 260.9c.4 14 11.5 25 25.3 25s24.8-11 25.3-25zM2193 471.5a307 307 0 00-119 23.9 542.6 542.6 0 00-737-457.8c-23.2 9-29.4 18.2-29.6 36.2v976a37.2 37.2 0 0033.2 36.3l852.4.5a307.5 307.5 0 000-615zM1244.5 73a34.2 34.2 0 00-33.9 33.8l-13.8 692.7 13.9 251.4a34 34 0 0033.8 33.5 34.2 34.2 0 0033.9-33.7v.3l15-251.5-15-692.8a34.2 34.2 0 00-33.9-33.7zM248.8 1282.1c-36.4-8.6-46.2-13.1-46.2-27.6 0-10.1 8.2-20.6 32.8-20.6a70 70 0 0152 23.6l33.2-32.1a109.7 109.7 0 00-83.6-36c-45.3 0-82 25.5-82 67.1 0 45.3 29.6 58.7 71.8 68.5 43.3 9.8 51.2 16.4 51.2 31.2 0 17.3-12.9 24.9-40 24.9-22 0-42.6-7.5-58.7-26.3l-33.1 29.5c17.4 25.6 50.8 41.7 89.1 41.7 62.7 0 90.2-29.5 90.2-73.1 0-49.9-40.3-62.3-76.7-70.8zm211.2-92.8c-62.6 0-99.7 48.5-99.7 118.3 0 69.9 37 118.3 99.7 118.3 62.5 0 99.6-48.4 99.6-118.3 0-69.8-37-118.3-99.6-118.3zm0 191.1c-37 0-52.5-31.8-52.5-72.7 0-41 15.4-72.8 52.5-72.8 37 0 52.4 31.8 52.4 72.8s-15.4 72.7-52.4 72.7zm284.8-58.6c0 36.7-18 59.3-47.2 59.3-29.1 0-46.8-23.3-46.8-60V1193h-46v128.9c0 66.8 37.4 104.2 92.8 104.2 58.4 0 93.1-38.4 93.1-104.9V1193h-45.9v128.9zm243.9-31.8c0 12.7.6 41.6.6 50-3-5.8-10.4-17.3-16-25.8L892 1192.9h-44v229.5h45.3v-101c0-12.8-.6-41.6-.6-50.2 2.9 6 10.5 17.4 16 26l84.3 125.2h41v-229.5h-45.3v97zm176-97.1H1093v229.5h68.5c59 0 117.4-34.1 117.4-114.8 0-83.9-48.5-114.7-114-114.7zm-3.3 185h-22.6v-140.4h24.3c48.5 0 68.5 23.3 68.5 70.1 0 42-22 70.2-70.2 70.2zm259.3-143c20.7 0 33.8 9.2 42 24.9l42.6-19.7c-14.4-29.8-40.7-50.8-84-50.8-59.9 0-101.9 48.5-101.9 118.3 0 72.5 40.3 118.3 100.3 118.3 41.7 0 69.2-19.3 85-51.7l-38.7-23c-12.2 20.4-24.3 29.2-45 29.2-34.4 0-54.4-31.5-54.4-72.8 0-42.5 19.7-72.7 54.1-72.7zm170.2-42H1545v229.5h138V1377h-92V1193zm213-3.6c-62.7 0-99.7 48.5-99.7 118.3 0 69.9 37 118.3 99.7 118.3 62.6 0 99.6-48.4 99.6-118.3 0-69.8-37-118.3-99.6-118.3zm0 191.1c-37.1 0-52.5-31.8-52.5-72.7 0-41 15.4-72.8 52.5-72.8 37 0 52.4 31.8 52.4 72.8s-15.4 72.7-52.4 72.7zm284.8-58.6c0 36.7-18 59.3-47.1 59.3-29.3 0-47-23.3-47-60V1193h-45.8v128.9c0 66.8 37.3 104.2 92.8 104.2 58.3 0 93-38.4 93-104.9V1193h-45.9v128.9zm175-129H2192v229.6h68.5c59 0 117.3-34.1 117.3-114.8 0-83.9-48.5-114.7-114-114.7zm-3.2 185h-22.6v-140.3h24.3c48.4 0 68.4 23.3 68.4 70.1 0 42-22 70.2-70.1 70.2z"/></svg>