<svg xmlns="http://www.w3.org/2000/svg" viewBox="-3 -3 30 30"><path fill="rgba(0,0,0,0.7)" fill-rule="evenodd" d="M12 2a10 10 0 1 0 0 20 10 10 0 0 0 0-20ZM0 12a12 12 0 1 1 24 0 12 12 0 0 1-24 0Z" clip-rule="evenodd"/><path fill="rgba(0,0,0,0.7)" fill-rule="evenodd" d="M9.6 22.7v-3.3c-1 0-1.7 0-2-.2-.4-.3-.8-1.1-1.2-1.7-.3-.6-1.1-.7-1.5-.8-.3-.1-.4-.7 1-.3 1.3.4 1.3 1.5 1.7 1.8.4.2 1.4.1 1.9 0 .4-.3.4-1 .5-1.3 0-.3-.3-.4-.3-.4-.4 0-2.7-.5-3.4-2.7-.6-2.2.2-3.7.7-4.3.2-.4.2-1.3-.1-2.7C8 6.7 9 7.1 9.7 8c0 0 1-.5 2.3-.5 1.4 0 1.9.4 2.3.5.3 0 .6-1.6 3-1.2-.5 1-1 2.2-.6 2.7.3.5 1.5 2 .8 4.3a3.8 3.8 0 0 1-3 2.7c-.1 0-.2.1-.2.3l.5 1c.2.6.3 2.2 0 4.8a13 13 0 0 1-2.5.4h-1.4l-1.3-.3Z" clip-rule="evenodd"/></svg>