<svg width="694" height="315" xmlns="http://www.w3.org/2000/svg"><g fill-rule="nonzero" fill="none"><rect fill="#848484" opacity=".3" style="mix-blend-mode:multiply" x=".2" y="296.3" width="693.7" height="18" rx="9"/><path d="M655.5 221.9c0-37-28-67.8-64.8-71.3v-8.4h-21.9V303h22v-9.7a71.4 71.4 0 0064.7-71.3zM590.7 270v-96.4a48.7 48.7 0 010 96.4z" fill="#F09F54"/><path d="M590.7 150.6v-8.4h-21.9V303h22v-9.7a71.6 71.6 0 000-142.6zm0 135.2v8.3h-20.4V149.5h20.4v8.5a64.6 64.6 0 0158 63.9 64.5 64.5 0 01-58 63.9z" fill="#F09F54" opacity=".3" style="mix-blend-mode:multiply"/><path d="M590.7 305h-21.9a2 2 0 01-2-2V142.1c0-1.1 1-2 2-2h22a2 2 0 012 2v6.6a73.6 73.6 0 010 146.2v7.9a2 2 0 01-2 2zm-19.9-4h18v-7.8a2 2 0 011.7-2 69.6 69.6 0 000-138.6 2 2 0 01-1.8-2v-6.4h-17.9V301zm20-29a2 2 0 01-2-2v-96.3a2 2 0 012.2-2 50.7 50.7 0 01-.3 100.4zm2-96v91.7a46.7 46.7 0 000-91.6z" fill="#444E59"/><path d="M577.6 288.3h-8.8a1.5 1.5 0 010-3h8.8a1.5 1.5 0 010 3zM577.6 272.3h-8.8a1.5 1.5 0 010-3h8.8a1.5 1.5 0 010 3zM577.6 256.2h-8.8a1.5 1.5 0 010-3h8.8a1.5 1.5 0 010 3zM577.6 240.1h-8.8a1.5 1.5 0 010-3h8.8a1.5 1.5 0 010 3zM577.6 224h-8.8a1.5 1.5 0 010-3h8.8a1.5 1.5 0 010 3zM577.6 208h-8.8a1.5 1.5 0 010-3h8.8a1.5 1.5 0 010 3zM577.6 192h-8.8a1.5 1.5 0 010-3h8.8a1.5 1.5 0 010 3zM577.6 175.8h-8.8a1.5 1.5 0 010-3h8.8a1.5 1.5 0 010 3zM577.6 159.8h-8.8a1.5 1.5 0 010-3h8.8a1.5 1.5 0 010 3z" fill="#444E59"/><path fill="#F09F54" d="M520.3 60.9h33.1v241.6h-33.1z"/><path fill="#F09F54" d="M520.3 60.9h33.1v241.6h-33.1z"/><path fill="#F09F54" opacity=".3" style="mix-blend-mode:multiply" d="M539 60.9h14.4v241.6H539z"/><path d="M553.3 304.5h-33a2 2 0 01-2-2V61c0-1.1.9-2 2-2h33a2 2 0 012 2v241.6a2 2 0 01-2 2zm-31-4h29V63h-29v237.6z" fill="#444E59"/><path d="M531.8 279.6h-11.5a1.5 1.5 0 010-3h11.5a1.5 1.5 0 010 3zM527.4 291h-7.1a1.5 1.5 0 010-3h7.1a1.5 1.5 0 010 3zM531.8 256.6h-11.5a1.5 1.5 0 010-3h11.5a1.5 1.5 0 010 3zM527.4 268h-7.1a1.5 1.5 0 010-3h7.1a1.5 1.5 0 010 3zM531.8 233.6h-11.5a1.5 1.5 0 010-3h11.5a1.5 1.5 0 010 3zM527.4 245h-7.1a1.5 1.5 0 010-3h7.1a1.5 1.5 0 010 3zM531.8 210.5h-11.5a1.5 1.5 0 010-3h11.5a1.5 1.5 0 010 3zM527.4 222h-7.1a1.5 1.5 0 010-3h7.1a1.5 1.5 0 010 3zM531.8 187.5h-11.5a1.5 1.5 0 010-3h11.5a1.5 1.5 0 010 3zM527.4 199h-7.1a1.5 1.5 0 010-3h7.1a1.5 1.5 0 010 3zM531.8 164.5h-11.5a1.5 1.5 0 010-3h11.5a1.5 1.5 0 010 3zM527.4 176h-7.1a1.5 1.5 0 010-3h7.1a1.5 1.5 0 010 3zM531.8 141.5h-11.5a1.5 1.5 0 010-3h11.5a1.5 1.5 0 010 3zM527.4 153h-7.1a1.5 1.5 0 010-3h7.1a1.5 1.5 0 010 3zM531.8 118.5h-11.5a1.5 1.5 0 010-3h11.5a1.5 1.5 0 010 3zM527.4 130h-7.1a1.5 1.5 0 010-3h7.1a1.5 1.5 0 010 3zM531.8 95.5h-11.5a1.5 1.5 0 010-3h11.5a1.5 1.5 0 010 3zM527.4 107h-7.1a1.5 1.5 0 010-3h7.1a1.5 1.5 0 010 3zM531.8 72.5h-11.5a1.5 1.5 0 010-3h11.5a1.5 1.5 0 010 3zM527.4 84h-7.1a1.5 1.5 0 010-3h7.1a1.5 1.5 0 010 3z" fill="#444E59"/><path fill="#848484" d="M459.1 119.3H472v34.1h-12.9z"/><path fill="#848484" opacity=".3" style="mix-blend-mode:multiply" d="M459.1 119.3h4.8v34.1h-4.8z"/><path d="M472 155.5h-12.9a2 2 0 01-2-2v-34.2c0-1 1-2 2-2h13a2 2 0 012 2v34.2a2 2 0 01-2 2zm-10.9-4h9v-30.2h-9v30.2z" fill="#444E59"/><path fill="#FFF" d="M462.6 153.5h5.9V170h-5.9z"/><path d="M468.5 172h-5.9a2 2 0 01-2-2v-16.5c0-1.1 1-2 2-2h6a2 2 0 012 2v16.4a2 2 0 01-2 2zm-3.9-4h2v-12.5h-2v12.4z" fill="#444E59"/><path fill="#FFF" d="M455.6 184.7l-30 117.7 45.6-116.1z"/><path d="M425.6 304.4a2 2 0 01-1.9-2.5l30-117.7a2 2 0 012.1-1.5l15.6 1.6a2 2 0 011.7 2.7l-45.6 116.1a2 2 0 01-1.9 1.3zM457.1 187l-21.6 84.9 32.9-83.8-11.3-1.1z" fill="#444E59"/><path fill="#FFF" d="M475.6 184.7l30 117.7L460 186.3z"/><path d="M505.6 304.4a2 2 0 01-1.8-1.3L458.2 187a2 2 0 011.7-2.7l15.5-1.6c1 0 2 .6 2.2 1.5l30 117.7a2 2 0 01-2 2.5zM463 188l32.9 83.8-21.7-85L463 188z" fill="#444E59"/><circle fill="#71A850" cx="465.6" cy="187.8" r="20"/><path d="M451.2 187.8a20 20 0 0117.2-19.8 20 20 0 100 39.5 20 20 0 01-17.2-19.7z" fill="#71A850" opacity=".4" style="mix-blend-mode:multiply"/><path d="M465.6 209.8a22 22 0 110-44 22 22 0 010 44zm0-40a18 18 0 100 36 18 18 0 000-36z" fill="#444E59"/><circle fill="#444E59" cx="465.6" cy="187.8" r="6.8"/><path d="M465.6 196.5a8.8 8.8 0 110-17.5 8.8 8.8 0 010 17.5zm0-13.5a4.8 4.8 0 100 9.5 4.8 4.8 0 000-9.5z" fill="#444E59"/><rect fill="#848484" x="247.4" y="2.2" width="160" height="300" rx="14"/><path d="M393.4 2.2H385a14 14 0 0114 14v272a14 14 0 01-14 14h8.4a14 14 0 0014-14v-272a14 14 0 00-14-14z" fill="#848484" opacity=".3" style="mix-blend-mode:multiply"/><path d="M255.7 288.2v-272a14 14 0 0114-14h-8.3a14 14 0 00-14 14v272a14 14 0 0014 14h8.3a14 14 0 01-14-14z" fill="#848484" opacity=".5" style="mix-blend-mode:screen"/><path d="M393.4 304.2h-132a16 16 0 01-16-16v-272a16 16 0 0116-16h132a16 16 0 0116 16v272a16 16 0 01-16 16zm-132-300a12 12 0 00-12 12v272a12 12 0 0012 12h132a12 12 0 0012-12v-272a12 12 0 00-12-12h-132z" fill="#444E59"/><path fill="#E9FBFF" d="M407.4 39.7v224h-160v-224z"/><path d="M394.1 56.8h12.5v55H394c-6.8 0-12.3-5.4-12.3-12.2V69a12.3 12.3 0 0112.3-12.3zM247.4 138.3h9.2c6.9 0 12.4 5.5 12.4 12.4v72.4c0 6.8-5.5 12.4-12.4 12.4h-9.2v-97.2z" fill="#C9C9C9"/><path d="M407.4 265.7h-160a2 2 0 01-2-2v-224c0-1.1 1-2 2-2h160a2 2 0 012 2v224a2 2 0 01-2 2zm-158-4h156v-220h-156v220zM356.4 24.7h-7a2.5 2.5 0 110-5h7a2.5 2.5 0 110 5zM338.4 24.7h-40a2.5 2.5 0 110-5h40a2.5 2.5 0 110 5z" fill="#444E59"/><circle fill="#848484" opacity=".3" style="mix-blend-mode:screen" cx="327.4" cy="280.6" r="11"/><circle fill="#444E59" cx="327.4" cy="280.6" r="8.4"/><g opacity=".3" fill="#444E59"><path d="M291 237.9h-4.2a1 1 0 110-2h4c.6 0 1 .4 1 1a1 1 0 01-.9 1zm-8.3 0h-4a1 1 0 110-2h4a1 1 0 110 2zm-8.2 0a9 9 0 01-4.3-1.3 1 1 0 011-1.7 7 7 0 003.4 1 1 1 0 110 2zm20.3-1a1 1 0 01-.5-2 7 7 0 002.5-2.4 1 1 0 011.8 1 9 9 0 01-3.3 3.2 1 1 0 01-.5.1zm-27-3a1 1 0 01-.8-.6 9 9 0 01-1.1-4.4 1 1 0 112 0 7 7 0 00.9 3.4 1 1 0 01-1 1.5zm31-3.7a1 1 0 01-1-1V225a1 1 0 112 0v4c0 .6-.4 1-1 1zm-32-4.4a1 1 0 01-1-1v-4a1 1 0 112 0v4c0 .6-.4 1-1 1zm32-3.8a1 1 0 01-1-1v-4a1 1 0 112 0v4c0 .6-.4 1-1 1zm-32-4.3a1 1 0 01-1-1v-3.8-.3a1 1 0 112 0v4.1a1 1 0 01-1 1zm32-3.9a1 1 0 01-1-1 7 7 0 00-.9-3.4 1 1 0 011.8-1 9 9 0 011.2 4.4 1 1 0 01-1 1zm-30.8-4a1 1 0 01-.9-1.5 9 9 0 013.3-3.2 1 1 0 111 1.7 7 7 0 00-2.5 2.4 1 1 0 01-.9.5zm27-2.7a1 1 0 01-.5-.2 7 7 0 00-3.4-1 1 1 0 110-2 9 9 0 014.4 1.3 1 1 0 01-.5 1.9zm-8-1.2h-4a1 1 0 110-2h4a1 1 0 110 2zm-8.1 0h-4a1 1 0 01-1-1 1 1 0 011-1h4a1 1 0 110 2zM375.3 237.9a1 1 0 110-2h4.1c.6 0 1 .4 1 1a1 1 0 01-1 1v-1 1h-4zm-4 0h-4.1a1 1 0 110-2h4a1 1 0 110 2zm-8.2 0a9 9 0 01-4.4-1.3 1 1 0 111-1.7 7 7 0 003.4 1 1 1 0 110 2zm20.3-1a1 1 0 01-.5-2 7 7 0 002.5-2.4 1 1 0 111.7 1 9 9 0 01-3.2 3.2 1 1 0 01-.5.1zm-27-3a1 1 0 01-.8-.6 9 9 0 01-1.2-4.4c0-.5.5-1 1-1 .6 0 1 .5 1 1a7 7 0 001 3.4 1 1 0 01-1 1.5zm31-3.7a1 1 0 01-1-1V225a1 1 0 112 0v4c0 .6-.5 1-1 1zm-32-4.4a1 1 0 01-1-1v-4a1 1 0 112 0v4c0 .6-.4 1-1 1zm32-3.8a1 1 0 01-1-1v-4a1 1 0 112 0v4c0 .6-.4 1-1 1zm-32-4.3a1 1 0 01-1-1v-3.8-.3a1 1 0 012 0v4.1a1 1 0 01-1 1zm32-3.9a1 1 0 01-1-1 7 7 0 00-.9-3.4 1 1 0 011.7-1 9 9 0 011.2 4.4 1 1 0 01-1 1zm-30.8-4a1 1 0 01-.9-1.5 9 9 0 013.3-3.2 1 1 0 111 1.7 7 7 0 00-2.6 2.4 1 1 0 01-.8.5zm27-2.7a1 1 0 01-.6-.2 7 7 0 00-3.3-1 1 1 0 110-2 9 9 0 014.4 1.3 1 1 0 01-.5 1.9zm-8-1.2h-4a1 1 0 110-2h4a1 1 0 110 2zm-8.1 0h-4a1 1 0 01-1.1-1 1 1 0 011-1v1-1h4a1 1 0 110 2zM331.3 237.9a1 1 0 110-2h4.1c.6 0 1 .4 1 1a1 1 0 01-1 1v-1 1h-4zm-4 0h-4.1a1 1 0 110-2h4a1 1 0 110 2zm-8.2 0a9 9 0 01-4.4-1.3 1 1 0 011-1.7 7 7 0 003.4 1 1 1 0 110 2zm20.3-1a1 1 0 01-.5-2 7 7 0 002.5-2.4 1 1 0 111.7 1 9 9 0 01-3.2 3.2 1 1 0 01-.5.1zm-27-3a1 1 0 01-.8-.6 9 9 0 01-1.2-4.4c0-.5.5-1 1-1 .6 0 1 .5 1 1a7 7 0 001 3.4 1 1 0 01-1 1.5zm31-3.7a1 1 0 01-1-1V225a1 1 0 112 0v4c0 .6-.4 1-1 1zm-32-4.4a1 1 0 01-1-1v-4a1 1 0 112 0v4c0 .6-.4 1-1 1zm32-3.8a1 1 0 01-1-1v-4a1 1 0 112 0v4c0 .6-.4 1-1 1zm-32-4.3a1 1 0 01-1-1v-3.8-.3a1 1 0 011-1c.6 0 1 .5 1 1v4.1c0 .5-.4 1-1 1zm32-3.9a1 1 0 01-1-1 7 7 0 00-.9-3.4 1 1 0 011.7-1 9 9 0 011.2 4.4 1 1 0 01-1 1zm-30.8-4a1 1 0 01-.9-1.6 9 9 0 013.3-3.1 1 1 0 111 1.7 7 7 0 00-2.6 2.4 1 1 0 01-.8.5zm27-2.7a1 1 0 01-.6-.2 7 7 0 00-3.3-1 1 1 0 010-2 9 9 0 014.4 1.3 1 1 0 01-.5 1.9zm-8-1.2h-4a1 1 0 110-2h4a1 1 0 110 2zm-8.1 0h-4a1 1 0 01-1.1-1 1 1 0 011-1h4a1 1 0 110 2zM291 189.9h-4.2a1 1 0 110-2h4c.6 0 1 .4 1 1a1 1 0 01-.9 1zm-8.3 0h-4a1 1 0 110-2h4a1 1 0 110 2zm-8.2 0a9 9 0 01-4.3-1.3 1 1 0 011-1.7 7 7 0 003.4 1 1 1 0 110 2zm20.3-1a1 1 0 01-.5-2 7 7 0 002.5-2.4 1 1 0 011.8 1 9 9 0 01-3.3 3.2 1 1 0 01-.5.1zm-27-3a1 1 0 01-.8-.6 9 9 0 01-1.1-4.4 1 1 0 112 0 7 7 0 00.9 3.4 1 1 0 01-1 1.5zm31-3.7a1 1 0 01-1-1V177a1 1 0 112 0v4c0 .6-.4 1-1 1zm-32-4.4a1 1 0 01-1-1v-4a1 1 0 112 0v4c0 .6-.4 1-1 1zm32-3.8a1 1 0 01-1-1v-4a1 1 0 112 0v4c0 .6-.4 1-1 1zm-32-4.3a1 1 0 01-1-1v-3.8-.4a1 1 0 112 .1v4.1a1 1 0 01-1 1zm32-3.9a1 1 0 01-1-1 7 7 0 00-.9-3.4 1 1 0 011.8-1 9 9 0 011.2 4.4 1 1 0 01-1 1zm-30.8-4a1 1 0 01-.9-1.5 9 9 0 013.3-3.2 1 1 0 111 1.7 7 7 0 00-2.5 2.4 1 1 0 01-.9.5zm27-2.7a1 1 0 01-.5-.2 7 7 0 00-3.4-1 1 1 0 010-2 9 9 0 014.4 1.3 1 1 0 01-.5 1.9zm-8-1.2h-4a1 1 0 010-2h4a1 1 0 010 2zm-8.1 0h-4a1 1 0 01-1-1 1 1 0 011-1h4a1 1 0 010 2zM375.3 189.9a1 1 0 110-2h4.1c.6 0 1 .4 1 1a1 1 0 01-1 1v-1 1h-4zm-4 0h-4.1a1 1 0 110-2h4a1 1 0 110 2zm-8.2 0a9 9 0 01-4.4-1.3 1 1 0 111-1.7 7 7 0 003.4 1 1 1 0 110 2zm20.3-1a1 1 0 01-.5-2 7 7 0 002.5-2.4 1 1 0 111.7 1 9 9 0 01-3.2 3.2 1 1 0 01-.5.1zm-27-3a1 1 0 01-.8-.6 9 9 0 01-1.2-4.4c0-.5.5-1 1-1 .6 0 1 .5 1 1a7 7 0 001 3.4 1 1 0 01-1 1.5zm31-3.7a1 1 0 01-1-1V177a1 1 0 112 0v4c0 .6-.5 1-1 1zm-32-4.4a1 1 0 01-1-1v-4a1 1 0 112 0v4c0 .6-.4 1-1 1zm32-3.8a1 1 0 01-1-1v-4a1 1 0 112 0v4c0 .6-.4 1-1 1zm-32-4.3a1 1 0 01-1-1v-3.8-.3a1 1 0 012 0v4.1a1 1 0 01-1 1zm32-3.9a1 1 0 01-1-1 7 7 0 00-.9-3.4 1 1 0 011.7-1 9 9 0 011.2 4.4 1 1 0 01-1 1zm-30.8-4a1 1 0 01-.9-1.5 9 9 0 013.3-3.2 1 1 0 111 1.7 7 7 0 00-2.6 2.4 1 1 0 01-.8.5zm27-2.7a1 1 0 01-.6-.2 7 7 0 00-3.3-1 1 1 0 110-2 9 9 0 014.4 1.3 1 1 0 01-.5 1.9zm-8-1.2h-4a1 1 0 110-2h4a1 1 0 110 2zm-8.1 0h-4a1 1 0 01-1.1-1 1 1 0 011-1v1-1h4a1 1 0 110 2zM331.3 189.9a1 1 0 110-2h4.1c.6 0 1 .4 1 1a1 1 0 01-1 1v-1 1h-4zm-4 0h-4.1a1 1 0 110-2h4a1 1 0 110 2zm-8.2 0a9 9 0 01-4.4-1.3 1 1 0 011-1.7 7 7 0 003.4 1 1 1 0 110 2zm20.3-1a1 1 0 01-.5-2 7 7 0 002.5-2.4 1 1 0 111.7 1 9 9 0 01-3.2 3.2 1 1 0 01-.5.1zm-27-3a1 1 0 01-.8-.6 9 9 0 01-1.2-4.4c0-.5.5-1 1-1 .6 0 1 .5 1 1a7 7 0 001 3.4 1 1 0 01-1 1.5zm31-3.7a1 1 0 01-1-1V177a1 1 0 112 0v4c0 .6-.4 1-1 1zm-32-4.4a1 1 0 01-1-1v-4a1 1 0 112 0v4c0 .6-.4 1-1 1zm32-3.8a1 1 0 01-1-1v-4a1 1 0 112 0v4c0 .6-.4 1-1 1zm-32-4.3a1 1 0 01-1-1v-3.8-.3a1 1 0 011-1c.6 0 1 .5 1 1v4.1c0 .5-.4 1-1 1zm32-3.9a1 1 0 01-1-1 7 7 0 00-.9-3.4 1 1 0 011.7-1 9 9 0 011.2 4.4 1 1 0 01-1 1zm-30.8-4a1 1 0 01-.9-1.6 9 9 0 013.3-3.1 1 1 0 111 1.7 7 7 0 00-2.6 2.4 1 1 0 01-.8.5zm27-2.7a1 1 0 01-.6-.2 7 7 0 00-3.3-1 1 1 0 010-2 9 9 0 014.4 1.3 1 1 0 01-.5 1.9zm-8-1.2h-4a1 1 0 010-2h4a1 1 0 010 2zm-8.1 0h-4a1 1 0 01-1.1-1 1 1 0 011-1h4a1 1 0 010 2zM291 141.9h-4.2a1 1 0 110-2h4c.6 0 1 .4 1 1a1 1 0 01-.9 1zm-8.3 0h-4a1 1 0 010-2h4a1 1 0 010 2zm-8.2 0a9 9 0 01-4.3-1.3 1 1 0 111-1.7 7 7 0 003.4 1 1 1 0 010 2zm20.3-1a1 1 0 01-.5-2 7 7 0 002.5-2.4 1 1 0 011.8 1 9 9 0 01-3.3 3.2 1 1 0 01-.5.1zm-27-3a1 1 0 01-.8-.6 9 9 0 01-1.1-4.4 1 1 0 012 0 7 7 0 00.9 3.4 1 1 0 01-1 1.5zm31-3.7a1 1 0 01-1-1V129a1 1 0 012 0v4.1c0 .5-.4 1-1 1zm-32-4.4a1 1 0 01-1-1v-4a1 1 0 012 0v4c0 .6-.4 1-1 1zm32-3.8a1 1 0 01-1-1v-4a1 1 0 012 0v4c0 .6-.4 1-1 1zm-32-4.3a1 1 0 01-1-1v-3.8-.3a1 1 0 011.1-1c.5 0 1 .5 1 1v4.1a1 1 0 01-1 1zm32-3.9a1 1 0 01-1-1 7 7 0 00-.9-3.4 1 1 0 011.8-1 9 9 0 011.2 4.4c0 .6-.5 1-1 1zm-30.8-4a1 1 0 01-.8-1.6 9 9 0 013.2-3.1 1 1 0 011 1.7 7 7 0 00-2.5 2.4 1 1 0 01-.9.5zm27-2.7a1 1 0 01-.5-.2 7 7 0 00-3.4-1 1 1 0 010-2 9 9 0 014.4 1.3 1 1 0 01-.5 1.9zm-8-1.2h-4a1 1 0 010-2h4a1 1 0 010 2zm-8.1 0h-4a1 1 0 01-1-1 1 1 0 011-1h4a1 1 0 010 2zM379.5 141.9h-4.2a1 1 0 110-2h4.1c.6 0 1 .4 1 1a1 1 0 01-1 1zm-8.2 0h-4.1a1 1 0 110-2h4a1 1 0 110 2zm-8.2 0a9 9 0 01-4.4-1.3 1 1 0 111-1.7 7 7 0 003.4 1 1 1 0 010 2zm20.3-1a1 1 0 01-.5-2 7 7 0 002.5-2.4 1 1 0 011.7 1 9 9 0 01-3.2 3.2 1 1 0 01-.5.1zm-27-3a1 1 0 01-.8-.6 9 9 0 01-1.2-4.4c0-.5.5-1 1-1 .6 0 1 .5 1 1a7 7 0 001 3.4 1 1 0 01-1 1.5zm31-3.7a1 1 0 01-1-1V129a1 1 0 112 0v4.1c0 .5-.5 1-1 1zm-32-4.4a1 1 0 01-1-1v-4a1 1 0 012 0v4c0 .6-.4 1-1 1zm32-3.8a1 1 0 01-1-1v-4a1 1 0 112 0v4c0 .6-.4 1-1 1zm-32-4.3a1 1 0 01-1-1v-3.8-.3a1 1 0 011-1c.6 0 1 .5 1 1v4.1a1 1 0 01-1 1zm32-3.9a1 1 0 01-1-1 7 7 0 00-.9-3.4 1 1 0 011.7-1 9 9 0 011.2 4.4 1 1 0 01-1 1zm-30.8-4a1 1 0 01-.9-1.6 9 9 0 013.3-3.1 1 1 0 011 1.7 7 7 0 00-2.6 2.4 1 1 0 01-.8.5zm27-2.7a1 1 0 01-.6-.2 7 7 0 00-3.3-1 1 1 0 01-1-1c0-.6.5-1 1-1a9 9 0 014.4 1.3 1 1 0 01-.5 1.9zm-8-1.2h-4a1 1 0 110-2h4a1 1 0 110 2zm-8.1 0h-4a1 1 0 01-1.1-1 1 1 0 011-1v1-1h4a1 1 0 110 2zM335.5 141.9h-4.2a1 1 0 110-2h4.1c.6 0 1 .4 1 1a1 1 0 01-1 1zm-8.2 0h-4.1a1 1 0 010-2h4a1 1 0 010 2zm-8.2 0a9 9 0 01-4.4-1.3 1 1 0 111-1.7 7 7 0 003.4 1 1 1 0 010 2zm20.3-1a1 1 0 01-.5-2 7 7 0 002.5-2.4 1 1 0 011.7 1 9 9 0 01-3.2 3.2 1 1 0 01-.5.1zm-27-3a1 1 0 01-.8-.6 9 9 0 01-1.2-4.4c0-.5.5-1 1-1 .6 0 1 .5 1 1a7 7 0 001 3.4 1 1 0 01-1 1.5zm31-3.7a1 1 0 01-1-1V129a1 1 0 012 0v4.1c0 .5-.4 1-1 1zm-32-4.4a1 1 0 01-1-1v-4a1 1 0 012 0v4c0 .6-.4 1-1 1zm32-3.8a1 1 0 01-1-1v-4a1 1 0 012 0v4c0 .6-.4 1-1 1zm-32-4.3a1 1 0 01-1-1v-3.8-.3a1 1 0 011-1c.6 0 1 .5 1 1v4.1c0 .5-.4 1-1 1zm32-3.9a1 1 0 01-1-1 7 7 0 00-.9-3.4 1 1 0 011.7-1 9 9 0 011.2 4.4 1 1 0 01-1 1zm-30.8-4a1 1 0 01-.9-1.6 9 9 0 013.3-3.1 1 1 0 011 1.7 7 7 0 00-2.6 2.4 1 1 0 01-.8.5zm27-2.7a1 1 0 01-.6-.2 7 7 0 00-3.3-1 1 1 0 010-2 9 9 0 014.4 1.3 1 1 0 01-.5 1.9zm-8-1.2h-4a1 1 0 010-2h4a1 1 0 010 2zm-8.1 0h-4a1 1 0 01-1.1-1 1 1 0 011-1h4a1 1 0 010 2zM291 93.9h-4.2a1 1 0 110-2h4c.6 0 1 .4 1 1a1 1 0 01-.9 1zm-8.3 0h-4a1 1 0 010-2h4a1 1 0 010 2zm-8.2 0a9 9 0 01-4.3-1.3 1 1 0 111-1.7 7 7 0 003.4 1 1 1 0 010 2zm20.3-1a1 1 0 01-.5-2 7 7 0 002.5-2.4 1 1 0 011.8 1 9 9 0 01-3.3 3.2 1 1 0 01-.5.1zm-27-3a1 1 0 01-.8-.6 9 9 0 01-1.1-4.4 1 1 0 012 0 7 7 0 00.9 3.4 1 1 0 01-1 1.5zm31-3.7a1 1 0 01-1-1V81a1 1 0 012 0v4.1c0 .5-.4 1-1 1zm-32-4.4a1 1 0 01-1-1v-4a1 1 0 012 0v4c0 .6-.4 1-1 1zm32-3.8a1 1 0 01-1-1v-4a1 1 0 012 0v4c0 .6-.4 1-1 1zm-32-4.3a1 1 0 01-1-1v-3.8-.3a1 1 0 112 0v4.1a1 1 0 01-1 1zm32-3.9a1 1 0 01-1-1 7 7 0 00-.9-3.4 1 1 0 011.8-1 9 9 0 011.2 4.4c0 .6-.5 1-1 1zm-30.8-4a1 1 0 01-.8-1.6 9 9 0 013.2-3.1 1 1 0 011 1.7 7 7 0 00-2.5 2.4 1 1 0 01-.9.5zm27-2.7a1 1 0 01-.5-.2 7 7 0 00-3.4-1 1 1 0 01-1-1c0-.6.5-1 1-1a9 9 0 014.4 1.3 1 1 0 01-.5 1.9zm-8-1.2h-4a1 1 0 010-2h4a1 1 0 010 2zm-8.1 0h-4a1 1 0 01-1-1 1 1 0 011-1h4a1 1 0 010 2zM379.5 93.9h-4.2a1 1 0 110-2h4.1c.6 0 1 .4 1 1a1 1 0 01-1 1zm-8.2 0h-4.1a1 1 0 110-2h4a1 1 0 110 2zm-8.2 0a9 9 0 01-4.4-1.3 1 1 0 111-1.7 7 7 0 003.4 1 1 1 0 010 2zm20.3-1a1 1 0 01-.5-2 7 7 0 002.5-2.4 1 1 0 011.7 1 9 9 0 01-3.2 3.2 1 1 0 01-.5.1zm-27-3a1 1 0 01-.8-.6 9 9 0 01-1.2-4.4c0-.5.5-1 1-1 .6 0 1 .5 1 1a7 7 0 001 3.4 1 1 0 01-1 1.5zm31-3.7a1 1 0 01-1-1V81a1 1 0 112 0v4.1c0 .5-.5 1-1 1zm-32-4.4a1 1 0 01-1-1v-4a1 1 0 012 0v4c0 .6-.4 1-1 1zm32-3.8a1 1 0 01-1-1v-4a1 1 0 112 0v4c0 .6-.4 1-1 1zm-32-4.3a1 1 0 01-1-1v-3.8-.4a1 1 0 011-1c.6.1 1 .6 1 1.1v4.1a1 1 0 01-1 1zm32-3.9a1 1 0 01-1-1 7 7 0 00-.9-3.4 1 1 0 011.7-1 9 9 0 011.2 4.4 1 1 0 01-1 1zm-30.8-4a1 1 0 01-.9-1.6 9 9 0 013.3-3.1 1 1 0 011 1.7 7 7 0 00-2.6 2.4 1 1 0 01-.8.5zm27-2.7a1 1 0 01-.6-.2 7 7 0 00-3.3-1 1 1 0 01-1-1c0-.6.5-1 1-1a9 9 0 014.4 1.3 1 1 0 01-.5 1.8zm-8-1.2h-4a1 1 0 110-2h4a1 1 0 110 2zm-8.1 0h-4a1 1 0 01-1.1-1 1 1 0 011-1v1-1h4a1 1 0 110 2zM335.5 93.9h-4.2a1 1 0 110-2h4.1c.6 0 1 .4 1 1a1 1 0 01-1 1zm-8.2 0h-4.1a1 1 0 010-2h4a1 1 0 010 2zm-8.2 0a9 9 0 01-4.4-1.3 1 1 0 111-1.7 7 7 0 003.4 1 1 1 0 010 2zm20.3-1a1 1 0 01-.5-2 7 7 0 002.5-2.4 1 1 0 011.7 1 9 9 0 01-3.2 3.2 1 1 0 01-.5.1zm-27-3a1 1 0 01-.8-.6 9 9 0 01-1.2-4.4c0-.5.5-1 1-1 .6 0 1 .5 1 1a7 7 0 001 3.4 1 1 0 01-1 1.5zm31-3.7a1 1 0 01-1-1V81a1 1 0 012 0v4.1c0 .5-.4 1-1 1zm-32-4.4a1 1 0 01-1-1v-4a1 1 0 012 0v4c0 .6-.4 1-1 1zm32-3.8a1 1 0 01-1-1v-4a1 1 0 012 0v4c0 .6-.4 1-1 1zm-32-4.3a1 1 0 01-1-1v-3.8-.3a1 1 0 012 0v4.1a1 1 0 01-1 1zm32-3.9a1 1 0 01-1-1 7 7 0 00-.9-3.4 1 1 0 011.7-1 9 9 0 011.2 4.4 1 1 0 01-1 1zm-30.8-4a1 1 0 01-.9-1.6 9 9 0 013.3-3.1 1 1 0 011 1.7 7 7 0 00-2.6 2.4 1 1 0 01-.8.5zm27-2.7a1 1 0 01-.6-.2 7 7 0 00-3.3-1 1 1 0 01-1-1c0-.6.5-1 1-1a9 9 0 014.4 1.3 1 1 0 01-.5 1.9zm-8-1.2h-4a1 1 0 010-2h4a1 1 0 010 2zm-8.1 0h-4a1 1 0 01-1.1-1 1 1 0 011-1h4a1 1 0 010 2z"/></g><rect fill="#71A850" x="266.9" y="204.9" width="32" height="32" rx="8"/><path d="M290.9 204.9h-16a8 8 0 00-7.3 4.6l31.3 5.6V213a8 8 0 00-8-8z" fill="#5F8C42" opacity=".5"/><path d="M290.9 238.9h-16a10 10 0 01-10-10v-16a10 10 0 0110-10h16a10 10 0 0110 10v16a10 10 0 01-10 10zm-16-32a6 6 0 00-6 6v16a6 6 0 006 6h16a6 6 0 006-6v-16a6 6 0 00-6-6h-16z" fill="#444E59"/><rect fill="#F09F54" x="311.4" y="204.9" width="32" height="32" rx="8"/><path d="M335.4 204.9h-16a8 8 0 00-7.2 4.6l31.2 5.6V213a8 8 0 00-8-8z" fill="#D38444" opacity=".5"/><path d="M335.4 238.9h-16a10 10 0 01-10-10v-16a10 10 0 0110-10h16a10 10 0 0110 10v16a10 10 0 01-10 10zm-16-32a6 6 0 00-6 6v16a6 6 0 006 6h16a6 6 0 006-6v-16a6 6 0 00-6-6h-16z" fill="#444E59"/><rect fill="#2FA9ED" x="355.4" y="156.9" width="32" height="32" rx="8"/><path d="M379.4 156.9h-16a8 8 0 00-7.2 4.6l31.2 5.6V165a8 8 0 00-8-8z" fill="#288FBC" opacity=".5"/><path d="M379.4 190.9h-16a10 10 0 01-10-10v-16a10 10 0 0110-10h16a10 10 0 0110 10v16a10 10 0 01-10 10zm-16-32a6 6 0 00-6 6v16a6 6 0 006 6h16a6 6 0 006-6v-16a6 6 0 00-6-6h-16z" fill="#444E59"/><rect fill="#E7534E" x="311.4" y="108.9" width="32" height="32" rx="8"/><path d="M335.4 108.9h-16a8 8 0 00-7.2 4.6l31.2 5.6V117a8 8 0 00-8-8z" fill="#BF4040" opacity=".5"/><path d="M335.4 142.9h-16a10 10 0 01-10-10v-16a10 10 0 0110-10h16a10 10 0 0110 10v16a10 10 0 01-10 10zm-16-32a6 6 0 00-6 6v16a6 6 0 006 6h16a6 6 0 006-6v-16a6 6 0 00-6-6h-16z" fill="#444E59"/><path d="M368.8 165.9l9.2 5.3a2 2 0 010 3.4l-9.2 5.3a2 2 0 01-3-1.7v-10.6a2 2 0 013-1.7zM331.6 214.7h-8.4a3.2 3.2 0 00-3.2 3.2v6.2c0 1.8 1.4 3.3 3.2 3.3h.3l-.7 2.8a.2.2 0 00.3.2l4.3-3h4.2c1.8 0 3.3-1.5 3.3-3.3V218c0-1.8-1.5-3.2-3.3-3.2zM281.3 227c-.8 0-1.7-.4-2.3-1l-3.7-3.7a2 2 0 012.9-2.8l3.1 3.1 7.8-7.7a2 2 0 012.8 2.8l-8.3 8.3c-.6.6-1.4 1-2.3 1zM327.4 134.3a9.5 9.5 0 110-18.9 9.5 9.5 0 010 19zm0-14.9a5.5 5.5 0 100 11 5.5 5.5 0 000-11zM267 86l-.1-15h-10c-.6-1.8-1.4-3.6-2.3-5.2l7-7.2-10.7-10.5-7 7.2c-1.7-1-3.5-1.6-5.4-2.2v-10l-15 .2v10c-1.8.6-3.6 1.3-5.2 2.3l-7.2-7-10.5 10.6 7.2 7c-1 1.8-1.6 3.6-2.2 5.4l-10 .1.2 15 10-.1c.6 1.8 1.3 3.6 2.3 5.3l-7 7.1 10.7 10.5 7-7.1c1.7.9 3.5 1.6 5.3 2.1l.1 10 15-.1-.1-10c1.8-.6 3.6-1.4 5.3-2.3l7.1 7L262 98.4l-7.1-7c.9-1.7 1.6-3.5 2.1-5.4h10zm-35.5 4.5a11.7 11.7 0 11-.3-23.4 11.7 11.7 0 01.3 23.4z" fill="#FFF"/><path d="M267 86l-.1-15h-10c-.6-1.8-1.4-3.6-2.3-5.2l7-7.2-10.7-10.5-7 7.2c-1.7-1-3.5-1.6-5.4-2.2v-10l-15 .2v10c-1.8.6-3.6 1.3-5.2 2.3l-7.2-7-10.5 10.6 7.2 7c-1 1.8-1.6 3.6-2.2 5.4l-10 .1.2 15 10-.1c.6 1.8 1.3 3.6 2.3 5.3l-7 7.1 10.7 10.5 7-7.1c1.7.9 3.5 1.6 5.3 2.1l.1 10 15-.1-.1-10c1.8-.6 3.6-1.4 5.3-2.3l7.1 7L262 98.4l-7.1-7c.9-1.7 1.6-3.5 2.1-5.4h10zm-35.5 4.5a11.7 11.7 0 11-.3-23.4 11.7 11.7 0 01.3 23.4z" fill="#F09F54"/><path d="M267 86l-.1-15h-10c-.6-1.8-1.4-3.6-2.3-5.2l7-7.2-10.7-10.5-7 7.2c-1.7-1-3.5-1.6-5.4-2.2v-10l-15 .2v10c-1.8.6-3.6 1.3-5.2 2.3l-7.2-7-10.5 10.6 7.2 7c-1 1.8-1.6 3.6-2.2 5.4l-10 .1.2 15 10-.1c.6 1.8 1.3 3.6 2.3 5.3l-7 7.1 10.7 10.5 7-7.1c1.7.9 3.5 1.6 5.3 2.1l.1 10 15-.1-.1-10c1.8-.6 3.6-1.4 5.3-2.3l7.1 7L262 98.4l-7.1-7c.9-1.7 1.6-3.5 2.1-5.4h10zm-35.5 4.5a11.7 11.7 0 11-.3-23.4 11.7 11.7 0 01.3 23.4z" fill="#F09F54"/><g opacity=".3" style="mix-blend-mode:multiply" fill="#F09F54"><path d="M263.2 71h3.7-3.7zM250.2 55.3l4-4-3.3-3.2-5.2 5.3c1.6.5 3 1.1 4.5 1.9zM237.5 67.1c-1 0-2 .2-3 .5a11.7 11.7 0 010 22.5 11.7 11.7 0 103-23zM222.6 53.6l2 2c1.7-1 3.5-1.7 5.3-2.3l-.1-10 8.6-.1h-15l.2 10.1-1 .3zM230.4 104.5c-1.8-.5-3.6-1.2-5.3-2.1l-1.9 1.8 1 .3v10h6.3v-10zM202 71.7h10c.5-2 1.2-3.7 2.1-5.4l-7.1-7 7.3-7.6-3.2-3.1-10.5 10.6 7.2 7c-1 1.8-1.6 3.6-2.1 5.4l-10 .1v15h6.4l-.1-15zM250.7 102c-1.4.9-2.8 1.5-4.3 2l5.2 5 3-3-3.9-4zM207.4 99l7-7.1c-1-1.7-1.7-3.5-2.3-5.3h-6.3c.6 1.9 1.3 3.6 2.3 5.3l-7 7.1 10.7 10.5 3-3.1-7.4-7.4z"/></g><path d="M224.2 116.5a2 2 0 01-2-2V106l-3-1.2-6 6.1a2 2 0 01-2.8 0l-10.7-10.4a2 2 0 010-2.9l6-6c-.5-1-1-2-1.3-3h-8.6a2 2 0 01-2-1.9l-.2-15a2 2 0 012-2h8.6l1.2-3-6.2-6a2 2 0 010-2.9l10.5-10.6a2 2 0 012.8 0l6.1 6c1-.6 2-1 3-1.3l-.1-8.6a2 2 0 012-2l15-.2c.4 0 1 .2 1.3.6.4.4.6.9.6 1.4l.1 8.6 3 1.2 6-6.2a2 2 0 012.8 0L263 57.2c.8.7.8 2 0 2.8l-6 6.1c.5 1 1 2 1.3 3l8.6-.1c.5 0 1 .2 1.4.5.4.4.6 1 .6 1.4l.1 15a2 2 0 01-2 2l-8.5.1-1.2 3 6.1 6c.8.7.8 2 0 2.8L253 110.5a2 2 0 01-2.8 0l-6.2-6c-1 .5-1.9 1-2.9 1.3v8.5a2 2 0 01-1.9 2l-15 .2zm-5.4-16.1c.3 0 .6 0 1 .2 1.5.8 3.1 1.5 4.9 2a2 2 0 011.4 1.9l.1 8 11-.1-.1-8a2 2 0 011.4-2c1.7-.5 3.4-1.2 5-2a2 2 0 012.3.3l5.7 5.6 7.7-7.9-5.7-5.6a2 2 0 01-.4-2.4c.8-1.5 1.5-3.2 2-5A2 2 0 01257 84h8l-.1-11h-8a2 2 0 01-2-1.4c-.5-1.7-1.2-3.3-2-4.9a2 2 0 01.3-2.3l5.6-5.8-7.9-7.6-5.6 5.7a2 2 0 01-2.3.4c-1.6-.9-3.3-1.6-5-2a2 2 0 01-1.5-2v-8l-11 .2v8a2 2 0 01-1.3 2c-1.7.4-3.4 1.1-5 2a2 2 0 01-2.3-.3l-5.8-5.6-7.6 7.8 5.7 5.6c.6.7.8 1.6.4 2.4-.9 1.6-1.5 3.2-2 5a2 2 0 01-2 1.4l-8 .1.2 11 8-.1a2 2 0 012 1.4c.4 1.7 1.1 3.4 2 5a2 2 0 01-.3 2.3l-5.6 5.7 7.8 7.7 5.6-5.7a2 2 0 011.5-.6zm12.5-7.9a13.5 13.5 0 11.2 0v-2 2h-.2zm0-23.4z" fill="#444E59"/><rect fill="#444E59" x="73.4" y="202.8" width="138.5" height="99.4" rx="7.4"/><path d="M80.8 202.8h123.7c4.1 0 7.4 3.3 7.4 7.4v8.7H73.4v-8.7a7.4 7.4 0 017.4-7.4z" fill="#BCBCBC"/><path d="M204.5 304.2H80.8a9.4 9.4 0 01-9.4-9.4v-84.6c0-5.2 4.2-9.4 9.4-9.4h123.7c5.2 0 9.4 4.2 9.4 9.4v84.6c0 5.2-4.2 9.4-9.4 9.4zM80.8 204.8c-3 0-5.4 2.4-5.4 5.4v84.6c0 3 2.4 5.4 5.4 5.4h123.7c3 0 5.4-2.4 5.4-5.4v-84.6c0-3-2.4-5.4-5.4-5.4H80.8z" fill="#444E59"/><path d="M204.5 304.2H80.8a9.4 9.4 0 01-9.4-9.4v-84.6c0-5.2 4.2-9.4 9.4-9.4h123.7c5.2 0 9.4 4.2 9.4 9.4v84.6c0 5.2-4.2 9.4-9.4 9.4zM80.8 204.8c-3 0-5.4 2.4-5.4 5.4v84.6c0 3 2.4 5.4 5.4 5.4h123.7c3 0 5.4-2.4 5.4-5.4v-84.6c0-3-2.4-5.4-5.4-5.4H80.8z" fill="#444E59"/><path d="M211.9 220.9H73.4a2 2 0 01-2-2v-8.7c0-5.2 4.2-9.4 9.4-9.4h123.7c5.2 0 9.4 4.2 9.4 9.4v8.7a2 2 0 01-2 2zm-136.5-4H210v-6.7c0-3-2.4-5.4-5.4-5.4H80.8c-3 0-5.4 2.4-5.4 5.4v6.7z" fill="#444E59"/><path d="M108.1 291.5H92.5a2 2 0 010-4h15.6a2 2 0 010 4zM82.6 291.5h-1a2 2 0 010-4h1a2 2 0 010 4zM132 282.9H92.5a2 2 0 010-4H132a2 2 0 010 4zM82.6 282.9h-1a2 2 0 010-4h1a2 2 0 010 4z" fill="#FFF"/><path d="M161.6 274.2h-10.8a2 2 0 010-4h10.8a2 2 0 010 4z" fill="#64BDFF"/><path d="M141.4 274.2h-20a2 2 0 010-4h20a2 2 0 010 4z" fill="#FFF"/><path d="M112.3 274.2H92.5a2 2 0 010-4h19.8a2 2 0 010 4z" fill="#FF5F5F"/><path d="M82.6 274.2h-1a2 2 0 010-4h1a2 2 0 010 4zM174 265.6h-48.2a2 2 0 010-4H174a2 2 0 010 4z" fill="#FFF"/><path d="M117.7 265.6H92.5a2 2 0 010-4h25.2a2 2 0 010 4z" fill="#64BDFF"/><path d="M82.6 265.6h-1a2 2 0 010-4h1a2 2 0 010 4z" fill="#FFF"/><path d="M143.8 257h-18a2 2 0 010-4h18a2 2 0 010 4z" fill="#FF5F5F"/><path d="M117.7 257H92.5a2 2 0 010-4h25.2a2 2 0 010 4z" fill="#FFBE78"/><path d="M82.6 257h-1a2 2 0 010-4h1a2 2 0 010 4z" fill="#FFF"/><path d="M134.2 248.4h-4.9a2 2 0 010-4h4.9a2 2 0 010 4z" fill="#64BDFF"/><path d="M121.4 248.4h-11.1a2 2 0 010-4h11.1a2 2 0 010 4z" fill="#FF5F5F"/><path d="M101.7 248.4h-9.2a2 2 0 010-4h9.2a2 2 0 010 4z" fill="#C383F2"/><path d="M82.6 248.4h-1a2 2 0 010-4h1a2 2 0 010 4z" fill="#FFF"/><path d="M174 239.7h-8.7a2 2 0 010-4h8.7a2 2 0 010 4z" fill="#64BDFF"/><path d="M154.3 239.7h-34a2 2 0 010-4h34a2 2 0 010 4z" fill="#FF5F5F"/><path d="M112.8 239.7H92.5a2 2 0 010-4h20.3a2 2 0 010 4z" fill="#FFBE78"/><path d="M82.6 239.7h-1a2 2 0 010-4h1a2 2 0 010 4z" fill="#FFF"/><path d="M161.6 231.1h-17.8a2 2 0 010-4h17.8a2 2 0 010 4z" fill="#FFBE78"/><path d="M135.2 231.1h-13.8a2 2 0 010-4h13.8a2 2 0 010 4z" fill="#6DBF7B"/><path d="M114.2 231.1h-7.8a2 2 0 010-4h7.8a2 2 0 010 4z" fill="#FFBE78"/><path d="M98.9 231.1h-6.4a2 2 0 010-4H99a2 2 0 010 4z" fill="#6DBF7B"/><path d="M82.6 231.1h-1a2 2 0 010-4h1a2 2 0 010 4z" fill="#FFF"/><circle fill="#E7534E" cx="87.1" cy="210.8" r="2.5"/><circle fill="#444E59" cx="96.1" cy="210.8" r="2.5"/><circle fill="#444E59" cx="105.2" cy="210.8" r="2.5"/><rect fill="#FFF" x="156.2" y="130.8" width="105.6" height="96.9" rx="8"/><rect fill="#FFF" x="156.2" y="130.8" width="105.6" height="96.9" rx="8"/><path d="M253.8 229.7h-89.6a10 10 0 01-10-10v-80.8a10 10 0 0110-10h89.6a10 10 0 0110 10v80.8a10 10 0 01-10 10zm-89.6-96.8a6 6 0 00-6 6v80.8a6 6 0 006 6h89.6a6 6 0 006-6v-80.8a6 6 0 00-6-6h-89.6z" fill="#444E59"/><path fill="#9483C4" d="M165.3 139h86.8v57.7h-86.8z"/><path d="M252 198.7h-86.7a2 2 0 01-2-2V139c0-1 1-2 2-2h86.8a2 2 0 012 2v57.7a2 2 0 01-2 2zm-84.7-4h82.8V141h-82.8v53.7zM220 207.9h-54.7a2 2 0 010-4h54.8a2 2 0 010 4zM197.7 217.1h-32.4a2 2 0 010-4h32.4a2 2 0 010 4z" fill="#444E59"/><path d="M174 188.4a2 2 0 01-1.4-3.5l18.7-18.5a2 2 0 012.8 0l17.4 17.4a2 2 0 11-2.8 2.9l-16-16-17.3 17a2 2 0 01-1.4.7z" fill="#444E59"/><path d="M242.8 188.4a2 2 0 01-1.6-.8L220 160l-16.6 18.5a2 2 0 01-3-2.7l18.2-20.2a2 2 0 013 0l22.7 29.6a2 2 0 01-1.6 3.2zM242.5 217a7 7 0 110-13.8 7 7 0 010 13.8zm0-9.8a3 3 0 100 5.8 3 3 0 000-5.8z" fill="#444E59"/><circle fill="#F09F54" cx="198.2" cy="156.9" r="6.2"/><path d="M198.2 165a8.2 8.2 0 110-16.2 8.2 8.2 0 010 16.3zm0-12.2a4.2 4.2 0 100 8.3 4.2 4.2 0 000-8.3zM181.3 104.3h-26.8a2 2 0 010-4h26.8a2 2 0 010 4zM147.3 104.3h-7a2 2 0 010-4h7a2 2 0 010 4zM181.3 91.9h-13.4a2 2 0 010-4h13.4a2 2 0 010 4zM161.1 91.9h-4a2 2 0 010-4h4a2 2 0 010 4zM146.4 182.7h-20.9a2 2 0 010-4h20.9a2 2 0 010 4zM119.9 182.7h-5.5a2 2 0 010-4h5.5a2 2 0 010 4zM146.4 170.3h-8.5a2 2 0 010-4h8.5a2 2 0 010 4zM130.7 170.3h-3.2a2 2 0 010-4h3.2a2 2 0 010 4zM478.6 37.6h-19.8a2 2 0 010-4h19.8a2 2 0 010 4zM452.2 37.6h-5.6a2 2 0 010-4h5.6a2 2 0 010 4zM478.6 25.2h-8.5a2 2 0 010-4h8.5a2 2 0 010 4zM463 25.2h-3.2a2 2 0 010-4h3.1a2 2 0 010 4z" fill="#444E59"/><rect fill="#2FA9ED" x="387.4" y="50.4" width="95.4" height="55.1" rx="8.6"/><path d="M474.2 107H396c-5.6 0-10-4.6-10-10.1V59c0-5.6 4.4-10 10-10.1h78.2c5.6 0 10.1 4.5 10.1 10.1V97c0 5.5-4.5 10-10 10zM396 51.9c-3.9 0-7 3.2-7 7.1V97c0 3.9 3.1 7 7 7h78.2c4 0 7.1-3.1 7.1-7V59c0-4-3.2-7.1-7-7.1H396z" fill="#444E59"/><path d="M469 66.7H435a1.5 1.5 0 010-3H469a1.5 1.5 0 010 3zM457.5 77.6H435a1.5 1.5 0 010-3h22.4a1.5 1.5 0 010 3z" opacity=".6" fill="#FFF"/><g opacity=".6" transform="translate(433 84)" fill="#FFF"><rect x="2.1" y="1.7" width="20.3" height="6.7" rx="3.3"/><path d="M19.1 9.9H5.5a4.8 4.8 0 010-9.7H19a4.8 4.8 0 110 9.7zM5.5 3.2a1.8 1.8 0 000 3.7H19a1.8 1.8 0 000-3.7H5.5z"/></g><path d="M421 94.4h-17.9a6.1 6.1 0 01-6.1-6.1v-21c0-3.3 2.7-6 6.1-6h18c3.3 0 6 2.7 6 6v21c0 3.3-2.7 6-6 6zm-17.9-30.2a3.1 3.1 0 00-3.1 3.1v21c0 1.7 1.4 3 3.1 3h18c1.6 0 3-1.3 3-3v-21c0-1.7-1.4-3-3-3h-18z" fill="#FFF"/><path d="M412 80.7a6.3 6.3 0 110-12.6 6.3 6.3 0 010 12.6zm0-9.6a3.3 3.3 0 100 6.6 3.3 3.3 0 000-6.6zM421.1 93.9c-.8 0-1.5-.7-1.5-1.5a7.6 7.6 0 00-15.1 0 1.5 1.5 0 01-3 0 10.6 10.6 0 0121.1 0 1.5 1.5 0 01-1.5 1.5z" fill="#FFF"/></g></svg>