<svg xmlns="http://www.w3.org/2000/svg" xmlns:xlink="http://www.w3.org/1999/xlink" width="555" height="482"><defs><path id="reuse-0" d="m3.6 65.5 7.7-11c.2-.4.7-.5 1-.2l7.9 5.5c.3.2.4.6.1 1l-7.7 11a5 5 0 0 1-7 1.2l-.8-.6a5 5 0 0 1-1.2-7z"/><path id="reuse-1" fill="#626C84" d="M166 69.9h232a14 14 0 0 1 14 14v136a14 14 0 0 1-14 14H166a14 14 0 0 1-14-14v-136a14 14 0 0 1 14-14z"/></defs><g fill="none"><g fill="#76D1FF" opacity=".5"><path d="m431.7 136.2 103-27.6A22.6 22.6 0 1 0 523 64.9l-162.4 43.4A22.6 22.6 0 0 1 349 64.6l73.9-19.8a22.6 22.6 0 1 0-11.7-43.7L35.8 101.6a22.6 22.6 0 0 0 11.7 43.7l58.5-15.6a22.6 22.6 0 0 1 11.7 43.7l-100 26.8A22.6 22.6 0 1 0 29.4 244l62.4-16.7a22.6 22.6 0 0 1 11.7 43.7l-4.4 1.3a22.6 22.6 0 0 0 11.7 43.7l4.2-1.1a22.6 22.6 0 0 1 11.7 43.7l-62.2 16.7A22.6 22.6 0 1 0 76.2 419L190 388.5a22.6 22.6 0 0 1 11.7 43.7l-18.2 4.9a22.6 22.6 0 0 0 11.7 43.7l289.4-77.5a22.6 22.6 0 0 0-11.7-43.7l-8.6 2.2a22.6 22.6 0 0 1-11.7-43.7l56-15a22.6 22.6 0 1 0-11.7-43.7l-79.4 21.2a22.6 22.6 0 0 1-11.7-43.7l56.2-15a22.6 22.6 0 0 0-11.7-43.7v-.1l-6.8 1.8a22.6 22.6 0 0 1-11.7-43.7z"/><path d="m520.4 159.2 6-1.6a22.6 22.6 0 0 1 11.7 43.7l-6 1.7a22.6 22.6 0 0 1-11.7-43.7z"/></g><g fill="#4E4E4E" opacity=".3"><path stroke="#000" stroke-linecap="round" stroke-linejoin="round" d="M174 197.8h232a14 14 0 0 1 14 14v17.5a14 14 0 0 1-14 14H174a14 14 0 0 1-14-14v-17.5a14 14 0 0 1 14-14z"/><path d="M174 197.8h232a14 14 0 0 1 14 14v17.5a14 14 0 0 1-14 14H174a14 14 0 0 1-14-14v-17.5a14 14 0 0 1 14-14z"/><path d="M174 197.8h232a14 14 0 0 1 14 14v20.5c0 4.7-3.9 8.5-8.6 8.5H168.5a8.5 8.5 0 0 1-8.5-8.5v-20.5a14 14 0 0 1 14-14z" opacity=".2"/><path stroke="#46505C" stroke-linecap="round" stroke-linejoin="round" stroke-width="4" d="M174 197.8h232a14 14 0 0 1 14 14v17.5a14 14 0 0 1-14 14H174a14 14 0 0 1-14-14v-17.5a14 14 0 0 1 14-14z"/><path d="M177.9 203h224v34.9h-224z"/><path stroke="#46505C" stroke-linecap="round" stroke-linejoin="round" d="M177.9 203h224v34.9h-224z"/><path d="M174 243.3h232a14 14 0 0 1 14 14v144a14 14 0 0 1-14 14H174a14 14 0 0 1-14-14v-144a14 14 0 0 1 14-14z"/><path stroke="#E6F3FF" stroke-width="2" d="M416 257.3v144a10 10 0 0 1-10 10H174a10 10 0 0 1-10-10v-144a10 10 0 0 1 10-10h232a10 10 0 0 1 10 10z"/><path d="M273.9 407.5H306a4 4 0 0 1 4 4v3.8h-40.1v-3.8a4 4 0 0 1 4-4z"/><path stroke="#46505C" stroke-linecap="round" stroke-linejoin="round" stroke-width="4" d="M174 243.3h232a14 14 0 0 1 14 14v144a14 14 0 0 1-14 14H174a14 14 0 0 1-14-14v-144a14 14 0 0 1 14-14z"/><path d="M178 256.7h224a3 3 0 0 1 3 3v86a3 3 0 0 1-3 3H178a3 3 0 0 1-3-3v-86a3 3 0 0 1 3-3z"/><path stroke="#626C84" stroke-linecap="round" stroke-linejoin="round" d="M207 326.2h12c.6 0 1 .5 1 1v12c0 .6-.4 1-1 1h-12a1 1 0 0 1-1-1v-12c0-.5.5-1 1-1zm-21.6 0h12c.5 0 1 .5 1 1v12c0 .6-.5 1-1 1h-12a1 1 0 0 1-1-1v-12c0-.5.4-1 1-1zm43.3 0h98.5c.6 0 1 .5 1 1v12c0 .6-.4 1-1 1h-98.5a1 1 0 0 1-1-1v-12c0-.5.4-1 1-1zm108.2 0h12c.5 0 1 .5 1 1v12c0 .6-.5 1-1 1h-12a1 1 0 0 1-1-1v-12c0-.5.4-1 1-1zm35.6 7.9h8c.6 0 1 .5 1 1v4.1c0 .6-.4 1-1 1h-8a1 1 0 0 1-1-1v-4c0-.6.5-1 1-1zm0-7.9h8c.6 0 1 .5 1 1v4.2c0 .5-.4 1-1 1h-8a1 1 0 0 1-1-1v-4.2c0-.5.5-1 1-1zm14 7.9h8c.6 0 1 .5 1 1v4.1c0 .6-.4 1-1 1h-8a1 1 0 0 1-1-1v-4c0-.6.5-1 1-1zm-28 0h8c.6 0 1 .5 1 1v4.1c0 .6-.4 1-1 1h-8a1 1 0 0 1-1-1v-4c0-.6.5-1 1-1zm-173.1-27.8H217c.6 0 1 .5 1 1v12c0 .6-.4 1-1 1h-31.6a1 1 0 0 1-1-1v-12c0-.5.4-1 1-1zm41.5 0h12c.5 0 1 .5 1 1v12c0 .6-.5 1-1 1h-12a1 1 0 0 1-1-1v-12c0-.5.4-1 1-1zm21.6 0h12c.5 0 1 .5 1 1v12c0 .6-.5 1-1 1h-12a1 1 0 0 1-1-1v-12c0-.5.4-1 1-1zm21.6 0h12c.6 0 1 .5 1 1v12c0 .6-.4 1-1 1h-12a1 1 0 0 1-1-1v-12c0-.5.5-1 1-1zm21.7 0h12c.5 0 1 .5 1 1v12c0 .6-.5 1-1 1h-12a1 1 0 0 1-1-1v-12c0-.5.4-1 1-1zm21.6 0h12c.6 0 1 .5 1 1v12c0 .6-.4 1-1 1h-12a1 1 0 0 1-1-1v-12c0-.5.5-1 1-1zm21.6 0h12c.6 0 1 .5 1 1v12c0 .6-.4 1-1 1h-12a1 1 0 0 1-1-1v-12c0-.5.5-1 1-1zm23.5 0h36c.6 0 1 .5 1 1v12c0 .6-.4 1-1 1h-36a1 1 0 0 1-1-1v-12c0-.5.5-1 1-1zM219 285.8h12c.6 0 1 .5 1 1v12c0 .6-.4 1-1 1h-12a1 1 0 0 1-1-1v-12c0-.5.5-1 1-1zm-33.6 0h24c.5 0 1 .5 1 1v12c0 .6-.5 1-1 1h-24a1 1 0 0 1-1-1v-12c0-.5.4-1 1-1zm55.3 0h12c.5 0 1 .5 1 1v12c0 .6-.5 1-1 1h-12a1 1 0 0 1-1-1v-12c0-.5.4-1 1-1zm21.6 0h12c.6 0 1 .5 1 1v12c0 .6-.4 1-1 1h-12a1 1 0 0 1-1-1v-12c0-.5.5-1 1-1zm21.7 0h12c.5 0 1 .5 1 1v12c0 .6-.5 1-1 1h-12a1 1 0 0 1-1-1v-12c0-.5.4-1 1-1zm21.6 0h12c.5 0 1 .5 1 1v12c0 .6-.5 1-1 1h-12a1 1 0 0 1-1-1v-12c0-.5.4-1 1-1zm21.6 0h12c.6 0 1 .5 1 1v12c0 .6-.4 1-1 1h-12a1 1 0 0 1-1-1v-12c0-.5.5-1 1-1zm21.7 0h12c.5 0 1 .5 1 1v12c0 .6-.5 1-1 1h-12a1 1 0 0 1-1-1v-12c0-.5.4-1 1-1zm21.6 0h24c.6 0 1 .5 1 1v12c0 .6-.4 1-1 1h-24a1 1 0 0 1-1-1v-12c0-.5.5-1 1-1zm-163.2-19.6h12c.5 0 1 .5 1 1v12c0 .6-.5 1-1 1h-12a1 1 0 0 1-1-1v-12c0-.5.4-1 1-1zm-21.9 0h12c.5 0 1 .5 1 1v12c0 .6-.5 1-1 1h-12a1 1 0 0 1-1-1v-12c0-.5.4-1 1-1zm43.8 0h12c.5 0 1 .5 1 1v12c0 .6-.5 1-1 1h-12a1 1 0 0 1-1-1v-12c0-.5.4-1 1-1zm21.9 0h12c.6 0 1 .5 1 1v12c0 .6-.4 1-1 1h-12a1 1 0 0 1-1-1v-12c0-.5.4-1 1-1zm21.9 0h12c.6 0 1 .5 1 1v12c0 .6-.4 1-1 1h-12a1 1 0 0 1-1-1v-12c0-.5.4-1 1-1zm21.9 0h12c.6 0 1 .5 1 1v12c0 .6-.4 1-1 1h-12a1 1 0 0 1-1-1v-12c0-.5.4-1 1-1zm21.9 0h12c.6 0 1 .5 1 1v12c0 .6-.4 1-1 1h-12a1 1 0 0 1-1-1v-12c0-.5.5-1 1-1zm21.9 0h12c.6 0 1 .5 1 1v12c0 .6-.4 1-1 1h-12a1 1 0 0 1-1-1v-12c0-.5.5-1 1-1zm21.9 0h12c.6 0 1 .5 1 1v12c0 .6-.4 1-1 1h-12a1 1 0 0 1-1-1v-12c0-.5.5-1 1-1zm21.9 0h12c.6 0 1 .5 1 1v12c0 .6-.4 1-1 1h-12a1 1 0 0 1-1-1v-12c0-.5.5-1 1-1z"/><path d="M207 326.2h12c.6 0 1 .5 1 1v12c0 .6-.4 1-1 1h-12a1 1 0 0 1-1-1v-12c0-.5.5-1 1-1zm-21.6 0h12c.5 0 1 .5 1 1v12c0 .6-.5 1-1 1h-12a1 1 0 0 1-1-1v-12c0-.5.4-1 1-1zm43.3 0h98.5c.6 0 1 .5 1 1v12c0 .6-.4 1-1 1h-98.5a1 1 0 0 1-1-1v-12c0-.5.4-1 1-1zm108.2 0h12c.5 0 1 .5 1 1v12c0 .6-.5 1-1 1h-12a1 1 0 0 1-1-1v-12c0-.5.4-1 1-1zm35.6 7.9h8c.6 0 1 .5 1 1v4.1c0 .6-.4 1-1 1h-8a1 1 0 0 1-1-1v-4c0-.6.5-1 1-1zm0-7.9h8c.6 0 1 .5 1 1v4.2c0 .5-.4 1-1 1h-8a1 1 0 0 1-1-1v-4.2c0-.5.5-1 1-1zm14 7.9h8c.6 0 1 .5 1 1v4.1c0 .6-.4 1-1 1h-8a1 1 0 0 1-1-1v-4c0-.6.5-1 1-1zm-28 0h8c.6 0 1 .5 1 1v4.1c0 .6-.4 1-1 1h-8a1 1 0 0 1-1-1v-4c0-.6.5-1 1-1zm-173.1-27.8H217c.6 0 1 .5 1 1v12c0 .6-.4 1-1 1h-31.6a1 1 0 0 1-1-1v-12c0-.5.4-1 1-1zm41.5 0h12c.5 0 1 .5 1 1v12c0 .6-.5 1-1 1h-12a1 1 0 0 1-1-1v-12c0-.5.4-1 1-1zm21.6 0h12c.5 0 1 .5 1 1v12c0 .6-.5 1-1 1h-12a1 1 0 0 1-1-1v-12c0-.5.4-1 1-1zm21.6 0h12c.6 0 1 .5 1 1v12c0 .6-.4 1-1 1h-12a1 1 0 0 1-1-1v-12c0-.5.5-1 1-1zm21.7 0h12c.5 0 1 .5 1 1v12c0 .6-.5 1-1 1h-12a1 1 0 0 1-1-1v-12c0-.5.4-1 1-1zm21.6 0h12c.6 0 1 .5 1 1v12c0 .6-.4 1-1 1h-12a1 1 0 0 1-1-1v-12c0-.5.5-1 1-1zm21.6 0h12c.6 0 1 .5 1 1v12c0 .6-.4 1-1 1h-12a1 1 0 0 1-1-1v-12c0-.5.5-1 1-1zm23.5 0h36c.6 0 1 .5 1 1v12c0 .6-.4 1-1 1h-36a1 1 0 0 1-1-1v-12c0-.5.5-1 1-1zM219 285.8h12c.6 0 1 .5 1 1v12c0 .6-.4 1-1 1h-12a1 1 0 0 1-1-1v-12c0-.5.5-1 1-1zm-33.6 0h24c.5 0 1 .5 1 1v12c0 .6-.5 1-1 1h-24a1 1 0 0 1-1-1v-12c0-.5.4-1 1-1zm55.3 0h12c.5 0 1 .5 1 1v12c0 .6-.5 1-1 1h-12a1 1 0 0 1-1-1v-12c0-.5.4-1 1-1zm21.6 0h12c.6 0 1 .5 1 1v12c0 .6-.4 1-1 1h-12a1 1 0 0 1-1-1v-12c0-.5.5-1 1-1zm21.7 0h12c.5 0 1 .5 1 1v12c0 .6-.5 1-1 1h-12a1 1 0 0 1-1-1v-12c0-.5.4-1 1-1zm21.6 0h12c.5 0 1 .5 1 1v12c0 .6-.5 1-1 1h-12a1 1 0 0 1-1-1v-12c0-.5.4-1 1-1zm21.6 0h12c.6 0 1 .5 1 1v12c0 .6-.4 1-1 1h-12a1 1 0 0 1-1-1v-12c0-.5.5-1 1-1zm21.7 0h12c.5 0 1 .5 1 1v12c0 .6-.5 1-1 1h-12a1 1 0 0 1-1-1v-12c0-.5.4-1 1-1zm21.6 0h24c.6 0 1 .5 1 1v12c0 .6-.4 1-1 1h-24a1 1 0 0 1-1-1v-12c0-.5.5-1 1-1zm-163.2-19.6h12c.5 0 1 .5 1 1v12c0 .6-.5 1-1 1h-12a1 1 0 0 1-1-1v-12c0-.5.4-1 1-1zm-21.9 0h12c.5 0 1 .5 1 1v12c0 .6-.5 1-1 1h-12a1 1 0 0 1-1-1v-12c0-.5.4-1 1-1zm43.8 0h12c.5 0 1 .5 1 1v12c0 .6-.5 1-1 1h-12a1 1 0 0 1-1-1v-12c0-.5.4-1 1-1zm21.9 0h12c.6 0 1 .5 1 1v12c0 .6-.4 1-1 1h-12a1 1 0 0 1-1-1v-12c0-.5.4-1 1-1zm21.9 0h12c.6 0 1 .5 1 1v12c0 .6-.4 1-1 1h-12a1 1 0 0 1-1-1v-12c0-.5.4-1 1-1zm21.9 0h12c.6 0 1 .5 1 1v12c0 .6-.4 1-1 1h-12a1 1 0 0 1-1-1v-12c0-.5.4-1 1-1zm21.9 0h12c.6 0 1 .5 1 1v12c0 .6-.4 1-1 1h-12a1 1 0 0 1-1-1v-12c0-.5.5-1 1-1zm21.9 0h12c.6 0 1 .5 1 1v12c0 .6-.4 1-1 1h-12a1 1 0 0 1-1-1v-12c0-.5.5-1 1-1zm21.9 0h12c.6 0 1 .5 1 1v12c0 .6-.4 1-1 1h-12a1 1 0 0 1-1-1v-12c0-.5.5-1 1-1zm21.9 0h12c.6 0 1 .5 1 1v12c0 .6-.4 1-1 1h-12a1 1 0 0 1-1-1v-12c0-.5.5-1 1-1zM205 234.3h170v13.5a4 4 0 0 1-4 4H209a4 4 0 0 1-4-4v-13.5z"/><path d="M371 247.8H209a4 4 0 0 1-4-4v4a4 4 0 0 0 4 4h162a4 4 0 0 0 4-4v-4a4 4 0 0 1-4 4z" opacity=".3"/><path stroke="#46505C" stroke-linecap="round" stroke-linejoin="round" stroke-width="2" d="M205 234.3h170v13.5a4 4 0 0 1-4 4H209a4 4 0 0 1-4-4v-13.5h0z"/><path d="M255 353.7h70a2 2 0 0 1 2 2v47a2 2 0 0 1-2 2h-70a2 2 0 0 1-2-2v-47c0-1 .8-2 2-2z"/><path stroke="#626C84" stroke-linecap="round" stroke-linejoin="round" d="M255 353.7h70a2 2 0 0 1 2 2v47a2 2 0 0 1-2 2h-70a2 2 0 0 1-2-2v-47c0-1 .8-2 2-2z"/></g><g fill="#4E4E4E" stroke="#46505C" stroke-linecap="round" stroke-linejoin="round" stroke-width="4" opacity=".3" transform="translate(66 278)"><use xlink:href="#reuse-0"/><use xlink:href="#reuse-0"/><circle cx="33.1" cy="32.9" r="32.6"/><circle cx="33.1" cy="32.9" r="32.6"/><circle cx="33.1" cy="32.9" r="25.4"/><circle cx="33.1" cy="32.9" r="25.4"/><path d="m16.5 27.7 1-2.3c1.8-3.3 3.8-6.8 7-8.8 2.8-1.7 6.7-2.4 9.7-.9 2.6 1.3 4.1 4 6.5 5.8 1.6 1 3.2 1.8 5 2.6 1.7.8 3 2.2 3.7 3.9.8 2.4-.5 5-.5 7.6a8 8 0 0 0 1.1 4c.5.6.8 1.3 1 2-.2 1-.9 1.8-1.8 2-2.6 1.3-5.7.9-8.6.6-2.9-.4-6-.4-8.3 1.4-1 .8-1.8 1.8-2.6 2.8a4 4 0 0 1-6.3.6 30.4 30.4 0 0 1-8.5-12.6c-.5-3 .4-6 1.6-8.7z"/><circle cx="38.2" cy="50.5" r="1.6"/><circle cx="34.1" cy="51.1" r="1.1"/><circle cx="41.9" cy="49.1" r="1"/><circle cx="30.7" cy="51.5" r="1"/><circle cx="45.1" cy="48" r="1"/><circle cx="13.4" cy="26.9" r="1"/><circle cx="41" cy="15.1" r="1"/><circle cx="47.2" cy="19.8" r="1"/><circle cx="47.9" cy="22.3" r="1"/></g><path fill="#FFF" stroke="#E6F3FF" stroke-width="2" d="m62.4 335.3 7.7-11c.2-.4.6-.4 1-.2l7.8 5.5c.4.2.4.6.2 1l-7.7 11a5 5 0 0 1-7 1.2l-.8-.6a5 5 0 0 1-1.2-7z"/><path fill="#4E4E4E" stroke="#46505C" stroke-linecap="round" stroke-linejoin="round" stroke-width="4" d="M71 324a.7.7 0 0 0-.9.3l-3.5 5a36.7 36.7 0 0 0 9 6.2l3.5-5c.2-.3.2-.7-.2-.9 0 0 0 0 0 0l-7.8-5.5z" opacity=".2"/><path fill="#46505C" d="M67.3 345.7a7 7 0 0 1-4-1.2l-.8-.6a7 7 0 0 1-1.8-9.8l7.8-11a2.7 2.7 0 0 1 3.7-.7l7.9 5.6c1.2.8 1.5 2.5.6 3.7l-7.7 11a7 7 0 0 1-5.7 3zm-3.3-9.3a3 3 0 0 0 .8 4.2l.8.6a3 3 0 0 0 4.1-.8l7-10-5.7-4-7 10z"/><circle cx="91.9" cy="302.7" r="32.6" fill="#FFF" stroke="#E6F3FF" stroke-width="2"/><path fill="#46505C" d="M91.9 337.3a34.6 34.6 0 1 1 0-69.2 34.6 34.6 0 0 1 0 69.2zm0-65.1a30.6 30.6 0 1 0 0 61.2 30.6 30.6 0 0 0 0-61.2z"/><circle cx="91.9" cy="302.7" r="25.4" fill="#845B5B"/><path fill="#46505C" d="M91.9 329.1a26.4 26.4 0 1 1 0-52.8 26.4 26.4 0 0 1 0 52.8zm0-50.7a24.4 24.4 0 1 0 0 48.8 24.4 24.4 0 0 0 0-48.8z"/><path fill="#845B5B" d="m75.3 297.5 1-2.3c1.8-3.3 3.8-6.7 7-8.8 2.8-1.7 6.7-2.4 9.6-.9 2.6 1.4 4.2 4.1 6.6 5.8 1.5 1 3.2 1.8 5 2.6 1.6.8 3 2.2 3.7 4 .8 2.4-.5 5-.5 7.5 0 1.5.4 2.9 1.1 4 .5.6.8 1.3.9 2-.1 1-.8 1.8-1.7 2.1-2.6 1.2-5.7.8-8.6.5-2.9-.3-6-.4-8.4 1.4l-2.6 2.8a4 4 0 0 1-6.2.6c-2-1.7-3.9-3.7-5.3-6-1.6-2-2.6-4.2-3.2-6.6-.5-3 .3-6 1.6-8.7z" opacity=".3"/><circle cx="97" cy="320.4" r="1.6" fill="#845B5B" opacity=".3"/><circle cx="92.9" cy="320.9" r="1.1" fill="#845B5B" opacity=".3"/><circle cx="100.7" cy="318.9" r="1" fill="#845B5B" opacity=".3"/><circle cx="89.4" cy="321.4" r="1" fill="#845B5B" opacity=".3"/><circle cx="103.8" cy="317.9" r="1" fill="#845B5B" opacity=".3"/><circle cx="72.2" cy="296.8" r="1" fill="#845B5B" opacity=".3"/><circle cx="99.8" cy="285" r="1" fill="#845B5B" opacity=".3"/><circle cx="106" cy="289.7" r="1" fill="#845B5B" opacity=".3"/><circle cx="106.7" cy="292.1" r="1" fill="#845B5B" opacity=".3"/><circle cx="94.1" cy="304.8" r="2" fill="#845B5B"/><circle cx="87.6" cy="297.2" r="3.5" fill="#845B5B"/><path fill="#000" d="M398 234.4H166c-8 0-14.5-6.5-14.5-14.5v-136c0-8 6.5-14.5 14.5-14.5h232c8 0 14.5 6.5 14.5 14.5v136c0 8-6.5 14.5-14.5 14.5zm-232-164c-7.4 0-13.5 6-13.5 13.5v136c0 7.4 6 13.5 13.5 13.5h232c7.4 0 13.5-6 13.5-13.5v-136c0-7.4-6-13.5-13.5-13.5H166z"/><use xlink:href="#reuse-1"/><use xlink:href="#reuse-1"/><path fill="#626C84" d="M166 69.9h232a14 14 0 0 1 14 14v127a14 14 0 0 1-14 14H166a14 14 0 0 1-14-14V84a14 14 0 0 1 14-14z" opacity=".2"/><path fill="#FFF" d="M166 73.9h232a14 14 0 0 1 14 14v132-136a14 14 0 0 0-14-14H166a14 14 0 0 0-14 14v4a14 14 0 0 1 14-14z" opacity=".1"/><path fill="#FFF" d="M231.2 233.9h16.1l119.1-164h-16zm25.4 0h5l119-164h-4.9z" opacity=".1"/><path fill="#46505C" d="M398 235.9H166a16 16 0 0 1-16-16v-136a16 16 0 0 1 16-16h232a16 16 0 0 1 16 16v136a16 16 0 0 1-16 16zm-232-164a12 12 0 0 0-12 12v136a12 12 0 0 0 12 12h232a12 12 0 0 0 12-12v-136a12 12 0 0 0-12-12H166z"/><path fill="#FD848E" d="M170 88.4h224v126H170z"/><path fill="#FFF" d="M246.4 214.4h16l91.6-126h-16zm25.3 0h5l91.5-126h-5z" opacity=".1"/><path fill="#46505C" d="M394 214.9H170a.5.5 0 0 1-.5-.5v-126c0-.3.2-.5.5-.5h224c.3 0 .5.2.5.5v126c0 .3-.2.5-.5.5zm-223.5-1h223v-125h-223v125z"/><path fill="#E6F3FF" d="M166 233.9h232a14 14 0 0 1 14 14v144a14 14 0 0 1-14 14H166a14 14 0 0 1-14-14v-144a14 14 0 0 1 14-14z"/><path fill="#FFF" stroke="#E6F3FF" stroke-width="2" d="M408 247.9v144a10 10 0 0 1-10 10H166a10 10 0 0 1-10-10v-144a10 10 0 0 1 10-10h232a10 10 0 0 1 10 10z"/><path fill="#E6F3FF" d="M266 398h32a4 4 0 0 1 4 4v3.9h-40v-3.8a4 4 0 0 1 4-4z"/><path fill="#46505C" d="M398 407.9H166a16 16 0 0 1-16-16v-144a16 16 0 0 1 16-16h232a16 16 0 0 1 16 16v144a16 16 0 0 1-16 16zm-232-172a12 12 0 0 0-12 12v144a12 12 0 0 0 12 12h232a12 12 0 0 0 12-12v-144a12 12 0 0 0-12-12H166z"/><path fill="#E6F3FF" d="M170 247.3h224a3 3 0 0 1 3 3v86a3 3 0 0 1-3 3H170a3 3 0 0 1-3-3v-86a3 3 0 0 1 3-3z"/><path fill="#626C84" d="M211 331.3h-12c-.7 0-1.4-.7-1.4-1.5v-12c0-.8.7-1.5 1.5-1.5h12c.8 0 1.5.7 1.5 1.5v12c0 .8-.7 1.5-1.5 1.5zm-12-14c-.2 0-.4.2-.4.5v12c0 .3.2.5.5.5h12c.3 0 .5-.2.5-.5v-12c0-.3-.2-.5-.5-.5h-12zm-9.6 14h-12c-.8 0-1.5-.7-1.5-1.5v-12c0-.8.7-1.5 1.5-1.5h12c.9 0 1.5.7 1.5 1.5v12c0 .8-.6 1.5-1.5 1.5zm-12-14c-.2 0-.5.2-.5.5v12c0 .3.3.5.5.5h12c.3 0 .5-.2.5-.5v-12c0-.3-.2-.5-.5-.5h-12zm141.9 14h-98.6c-.8 0-1.5-.7-1.5-1.5v-12c0-.8.7-1.5 1.5-1.5h98.6c.8 0 1.5.7 1.5 1.5v12c0 .8-.7 1.5-1.5 1.5zm-98.6-14c-.3 0-.5.2-.5.5v12c0 .3.2.5.5.5h98.6c.3 0 .5-.2.5-.5v-12c0-.3-.2-.5-.5-.5h-98.6zm120.3 14h-12c-1 0-1.6-.7-1.6-1.5v-12c0-.8.7-1.5 1.5-1.5h12c.8 0 1.5.7 1.5 1.5v12c0 .8-.7 1.5-1.5 1.5zm-12-14c-.4 0-.6.2-.6.5v12c0 .3.2.5.5.5h12c.3 0 .5-.2.5-.5v-12c0-.3-.2-.5-.5-.5h-12zm43.6 14h-8c-.9 0-1.5-.7-1.5-1.5v-4.1c0-.8.6-1.5 1.5-1.5h8c.8 0 1.5.7 1.5 1.5v4.1c0 .8-.7 1.5-1.5 1.5zm-8-6.1c-.3 0-.5.2-.5.5v4.1c0 .3.2.5.5.5h8c.2 0 .5-.2.5-.5v-4.1c0-.3-.3-.5-.5-.5h-8zm8-1.8h-8c-.9 0-1.5-.6-1.5-1.5v-4c0-.9.6-1.6 1.5-1.6h8c.8 0 1.5.7 1.5 1.5v4.1c0 .9-.7 1.5-1.5 1.5zm-8-6c-.3 0-.5.1-.5.4v4.1c0 .3.2.5.5.5h8c.2 0 .5-.2.5-.5v-4c0-.4-.3-.6-.5-.6h-8zm22 13.9h-8c-.9 0-1.5-.7-1.5-1.5v-4.1c0-.8.6-1.5 1.5-1.5h8c.8 0 1.5.7 1.5 1.5v4.1c0 .8-.7 1.5-1.5 1.5zm-8-6.1c-.3 0-.5.2-.5.5v4.1c0 .3.2.5.5.5h8c.2 0 .5-.2.5-.5v-4.1c0-.3-.3-.5-.5-.5h-8zm-20 6.1h-8c-.9 0-1.5-.7-1.5-1.5v-4.1c0-.8.6-1.5 1.5-1.5h8c.8 0 1.5.7 1.5 1.5v4.1c0 .8-.7 1.5-1.5 1.5zm-8-6.1c-.3 0-.5.2-.5.5v4.1c0 .3.2.5.5.5h8c.2 0 .5-.2.5-.5v-4.1c0-.3-.3-.5-.5-.5h-8zM209 311.4h-31.6c-.8 0-1.5-.7-1.5-1.5v-12c0-.8.7-1.5 1.5-1.5h31.7c.8 0 1.5.7 1.5 1.5v12c0 .8-.7 1.5-1.5 1.5zm-31.6-14c-.2 0-.5.2-.5.5v12c0 .3.3.5.5.5h31.7c.3 0 .5-.2.5-.5v-12c0-.3-.2-.5-.5-.5h-31.7zm53.5 14h-12c-.8 0-1.5-.7-1.5-1.5v-12c0-.8.7-1.5 1.5-1.5h12c.8 0 1.5.7 1.5 1.5v12c0 .8-.7 1.5-1.5 1.5zm-12-14c-.3 0-.5.2-.5.5v12c0 .3.2.5.5.5h12c.3 0 .5-.2.5-.5v-12c0-.3-.2-.5-.5-.5h-12zm33.6 14h-12c-.8 0-1.5-.7-1.5-1.5v-12c0-.8.7-1.5 1.5-1.5h12c.9 0 1.5.7 1.5 1.5v12c0 .8-.6 1.5-1.5 1.5zm-12-14c-.2 0-.5.2-.5.5v12c0 .3.3.5.5.5h12c.3 0 .5-.2.5-.5v-12c0-.3-.2-.5-.5-.5h-12zm33.7 14h-12c-.8 0-1.5-.7-1.5-1.5v-12c0-.8.7-1.5 1.5-1.5h12c.8 0 1.5.7 1.5 1.5v12c0 .8-.7 1.5-1.5 1.5zm-12-14c-.3 0-.5.2-.5.5v12c0 .3.2.5.5.5h12c.3 0 .5-.2.5-.5v-12c0-.3-.2-.5-.5-.5h-12zm33.6 14h-12c-.8 0-1.5-.7-1.5-1.5v-12c0-.8.7-1.5 1.5-1.5h12c.8 0 1.5.7 1.5 1.5v12c0 .8-.7 1.5-1.5 1.5zm-12-14c-.3 0-.5.2-.5.5v12c0 .3.2.5.5.5h12c.3 0 .5-.2.5-.5v-12c0-.3-.2-.5-.5-.5h-12zm33.7 14h-12c-.9 0-1.5-.7-1.5-1.5v-12c0-.8.6-1.5 1.5-1.5h12c.8 0 1.5.7 1.5 1.5v12c0 .8-.7 1.5-1.5 1.5zm-12-14c-.3 0-.5.2-.5.5v12c0 .3.2.5.5.5h12c.2 0 .5-.2.5-.5v-12c0-.3-.3-.5-.5-.5h-12zm33.6 14h-12c-.8 0-1.5-.7-1.5-1.5v-12c0-.8.7-1.5 1.5-1.5h12c.8 0 1.5.7 1.5 1.5v12c0 .8-.7 1.5-1.5 1.5zm-12-14c-.3 0-.5.2-.5.5v12c0 .3.2.5.5.5h12c.3 0 .5-.2.5-.5v-12c0-.3-.2-.5-.5-.5h-12zm59.5 14h-36c-.9 0-1.5-.7-1.5-1.5v-12c0-.8.6-1.5 1.5-1.5h36c.8 0 1.5.7 1.5 1.5v12c0 .8-.7 1.5-1.5 1.5zm-36-14c-.3 0-.5.2-.5.5v12c0 .3.2.5.5.5h36c.2 0 .5-.2.5-.5v-12c0-.3-.3-.5-.5-.5h-36zM223 291h-12c-.7 0-1.4-.7-1.4-1.6v-12c0-.8.7-1.5 1.5-1.5h12c.8 0 1.5.7 1.5 1.5v12c0 .9-.7 1.5-1.5 1.5zm-12-14c-.2 0-.4.1-.4.4v12c0 .3.2.5.5.5h12c.3 0 .5-.2.5-.5v-12c0-.3-.2-.5-.5-.5h-12zm-9.6 14h-24c-.8 0-1.5-.7-1.5-1.6v-12c0-.8.7-1.5 1.5-1.5h24c.9 0 1.5.7 1.5 1.5v12c0 .9-.6 1.5-1.5 1.5zm-24-14c-.2 0-.5.1-.5.4v12c0 .3.3.5.5.5h24c.3 0 .5-.2.5-.5v-12c0-.3-.2-.5-.5-.5h-24zm67.3 14h-12c-.8 0-1.5-.7-1.5-1.6v-12c0-.8.7-1.5 1.5-1.5h12c.9 0 1.5.7 1.5 1.5v12c0 .9-.6 1.5-1.5 1.5zm-12-14c-.3 0-.5.1-.5.4v12c0 .3.2.5.5.5h12c.3 0 .5-.2.5-.5v-12c0-.3-.2-.5-.5-.5h-12zm33.7 14h-12c-.9 0-1.5-.7-1.5-1.6v-12c0-.8.6-1.5 1.5-1.5h12c.8 0 1.5.7 1.5 1.5v12c0 .9-.7 1.5-1.5 1.5zm-12-14c-.3 0-.5.1-.5.4v12c0 .3.2.5.5.5h12c.2 0 .5-.2.5-.5v-12c0-.3-.3-.5-.5-.5h-12zm33.6 14h-12c-.8 0-1.5-.7-1.5-1.6v-12c0-.8.7-1.5 1.5-1.5h12c.8 0 1.5.7 1.5 1.5v12c0 .9-.7 1.5-1.5 1.5zm-12-14c-.3 0-.5.1-.5.4v12c0 .3.2.5.5.5h12c.3 0 .5-.2.5-.5v-12c0-.3-.2-.5-.5-.5h-12zm33.6 14h-12c-.8 0-1.5-.7-1.5-1.6v-12c0-.8.7-1.5 1.5-1.5h12c.9 0 1.5.7 1.5 1.5v12c0 .9-.6 1.5-1.5 1.5zm-12-14c-.2 0-.5.1-.5.4v12c0 .3.3.5.5.5h12c.3 0 .5-.2.5-.5v-12c0-.3-.2-.5-.5-.5h-12zm33.7 14h-12c-.9 0-1.5-.7-1.5-1.6v-12c0-.8.6-1.5 1.5-1.5h12c.8 0 1.5.7 1.5 1.5v12c0 .9-.7 1.5-1.5 1.5zm-12-14c-.3 0-.5.1-.5.4v12c0 .3.2.5.5.5h12c.3 0 .5-.2.5-.5v-12c0-.3-.2-.5-.5-.5h-12zm33.7 14h-12c-1 0-1.6-.7-1.6-1.6v-12c0-.8.7-1.5 1.5-1.5h12c.8 0 1.5.7 1.5 1.5v12c0 .9-.7 1.5-1.5 1.5zm-12-14c-.4 0-.6.1-.6.4v12c0 .3.2.5.5.5h12c.3 0 .5-.2.5-.5v-12c0-.3-.2-.5-.5-.5h-12zm45.6 14h-24c-.9 0-1.5-.7-1.5-1.6v-12c0-.8.6-1.5 1.5-1.5h24c.8 0 1.5.7 1.5 1.5v12c0 .9-.7 1.5-1.5 1.5zm-24-14c-.3 0-.5.1-.5.4v12c0 .3.2.5.5.5h24c.2 0 .5-.2.5-.5v-12c0-.3-.3-.5-.5-.5h-24zm-151.3-5.7h-12c-.8 0-1.5-.7-1.5-1.5v-12c0-.8.7-1.5 1.5-1.5h12c.9 0 1.5.7 1.5 1.5v12c0 .8-.6 1.5-1.5 1.5zm-12-14c-.2 0-.5.2-.5.5v12c0 .3.3.5.5.5h12c.3 0 .5-.2.5-.5v-12c0-.3-.2-.5-.5-.5h-12zm-9.9 14h-12c-.8 0-1.5-.7-1.5-1.5v-12c0-.8.7-1.5 1.5-1.5h12c.9 0 1.5.7 1.5 1.5v12c0 .8-.6 1.5-1.5 1.5zm-12-14c-.2 0-.5.2-.5.5v12c0 .3.3.5.5.5h12c.3 0 .5-.2.5-.5v-12c0-.3-.2-.5-.5-.5h-12zm55.8 14h-12c-.8 0-1.5-.7-1.5-1.5v-12c0-.8.7-1.5 1.5-1.5h12c.9 0 1.5.7 1.5 1.5v12c0 .8-.6 1.5-1.5 1.5zm-12-14c-.2 0-.5.2-.5.5v12c0 .3.3.5.5.5h12c.3 0 .5-.2.5-.5v-12c0-.3-.2-.5-.5-.5h-12zm33.9 14h-12c-.8 0-1.5-.7-1.5-1.5v-12c0-.8.7-1.5 1.5-1.5h12c.9 0 1.5.7 1.5 1.5v12c0 .8-.6 1.5-1.5 1.5zm-12-14c-.2 0-.5.2-.5.5v12c0 .3.3.5.5.5h12c.3 0 .5-.2.5-.5v-12c0-.3-.2-.5-.5-.5h-12zm33.9 14h-12c-.8 0-1.4-.7-1.4-1.5v-12c0-.8.6-1.5 1.4-1.5h12c.9 0 1.6.7 1.6 1.5v12c0 .8-.7 1.5-1.6 1.5zm-12-14c-.2 0-.4.2-.4.5v12c0 .3.2.5.4.5h12c.3 0 .6-.2.6-.5v-12c0-.3-.3-.5-.6-.5h-12zm34 14h-12c-.9 0-1.6-.7-1.6-1.5v-12c0-.8.7-1.5 1.6-1.5h12c.8 0 1.4.7 1.4 1.5v12c0 .8-.6 1.5-1.4 1.5zm-12-14c-.3 0-.6.2-.6.5v12c0 .3.3.5.6.5h12c.2 0 .4-.2.4-.5v-12c0-.3-.2-.5-.4-.5h-12zm33.9 14h-12c-.9 0-1.5-.7-1.5-1.5v-12c0-.8.6-1.5 1.5-1.5h12c.8 0 1.5.7 1.5 1.5v12c0 .8-.7 1.5-1.5 1.5zm-12-14c-.3 0-.5.2-.5.5v12c0 .3.2.5.5.5h12c.2 0 .5-.2.5-.5v-12c0-.3-.3-.5-.5-.5h-12zm33.9 14h-12c-.9 0-1.5-.7-1.5-1.5v-12c0-.8.6-1.5 1.5-1.5h12c.8 0 1.5.7 1.5 1.5v12c0 .8-.7 1.5-1.5 1.5zm-12-14c-.3 0-.5.2-.5.5v12c0 .3.2.5.5.5h12c.2 0 .5-.2.5-.5v-12c0-.3-.3-.5-.5-.5h-12zm33.9 14h-12c-.9 0-1.5-.7-1.5-1.5v-12c0-.8.6-1.5 1.5-1.5h12c.8 0 1.5.7 1.5 1.5v12c0 .8-.7 1.5-1.5 1.5zm-12-14c-.3 0-.5.2-.5.5v12c0 .3.2.5.5.5h12c.2 0 .5-.2.5-.5v-12c0-.3-.3-.5-.5-.5h-12zm33.9 14h-12c-.9 0-1.5-.7-1.5-1.5v-12c0-.8.6-1.5 1.5-1.5h12c.8 0 1.5.7 1.5 1.5v12c0 .8-.7 1.5-1.5 1.5zm-12-14c-.3 0-.5.2-.5.5v12c0 .3.2.5.5.5h12c.2 0 .5-.2.5-.5v-12c0-.3-.3-.5-.5-.5h-12z"/><path fill="#626C84" d="M199 316.8h12c.6 0 1 .5 1 1v12c0 .6-.4 1-1 1h-12a1 1 0 0 1-1-1v-12c0-.5.5-1 1-1zm-21.6 0h12c.6 0 1 .5 1 1v12c0 .6-.4 1-1 1h-12a1 1 0 0 1-1-1v-12c0-.5.5-1 1-1zm43.3 0h98.6c.5 0 1 .5 1 1v12c0 .6-.5 1-1 1h-98.6a1 1 0 0 1-1-1v-12c0-.5.5-1 1-1zm108.3 0h12c.5 0 1 .5 1 1v12c0 .6-.5 1-1 1h-12a1 1 0 0 1-1-1v-12c0-.5.4-1 1-1zm35.6 7.9h8c.5 0 1 .4 1 1v4.1c0 .6-.5 1-1 1h-8a1 1 0 0 1-1-1v-4.1c0-.6.4-1 1-1zm0-7.9h8c.5 0 1 .5 1 1v4.1c0 .6-.5 1-1 1h-8a1 1 0 0 1-1-1v-4c0-.6.4-1 1-1zm14 7.9h8c.5 0 1 .4 1 1v4.1c0 .6-.5 1-1 1h-8a1 1 0 0 1-1-1v-4.1c0-.6.4-1 1-1zm-28 0h8c.5 0 1 .4 1 1v4.1c0 .6-.5 1-1 1h-8a1 1 0 0 1-1-1v-4.1c0-.6.4-1 1-1zm-173.2-27.8h31.7c.5 0 1 .5 1 1v12c0 .6-.5 1-1 1h-31.7a1 1 0 0 1-1-1v-12c0-.5.5-1 1-1zm41.5 0h12c.6 0 1 .5 1 1v12c0 .6-.4 1-1 1h-12a1 1 0 0 1-1-1v-12c0-.5.5-1 1-1zm21.6 0h12c.6 0 1 .5 1 1v12c0 .6-.4 1-1 1h-12a1 1 0 0 1-1-1v-12c0-.5.5-1 1-1zm21.7 0h12c.5 0 1 .5 1 1v12c0 .6-.5 1-1 1h-12a1 1 0 0 1-1-1v-12c0-.5.4-1 1-1zm21.6 0h12c.6 0 1 .5 1 1v12c0 .6-.4 1-1 1h-12a1 1 0 0 1-1-1v-12c0-.5.5-1 1-1zm21.7 0h12c.5 0 1 .5 1 1v12c0 .6-.5 1-1 1h-12a1 1 0 0 1-1-1v-12c0-.5.4-1 1-1zm21.6 0h12c.5 0 1 .5 1 1v12c0 .6-.5 1-1 1h-12a1 1 0 0 1-1-1v-12c0-.5.4-1 1-1zm23.5 0h36c.5 0 1 .5 1 1v12c0 .6-.5 1-1 1h-36a1 1 0 0 1-1-1v-12c0-.5.4-1 1-1zM211 276.4h12c.6 0 1 .5 1 1v12c0 .6-.4 1-1 1h-12a1 1 0 0 1-1-1v-12c0-.5.5-1 1-1zm-33.6 0h24c.6 0 1 .5 1 1v12c0 .6-.4 1-1 1h-24a1 1 0 0 1-1-1v-12c0-.5.5-1 1-1zm55.3 0h12c.6 0 1 .5 1 1v12c0 .6-.4 1-1 1h-12a1 1 0 0 1-1-1v-12c0-.5.5-1 1-1zm21.7 0h12c.5 0 1 .5 1 1v12c0 .6-.5 1-1 1h-12a1 1 0 0 1-1-1v-12c0-.5.4-1 1-1zm21.6 0h12c.6 0 1 .5 1 1v12c0 .6-.4 1-1 1h-12a1 1 0 0 1-1-1v-12c0-.5.4-1 1-1zm21.6 0h12c.6 0 1 .5 1 1v12c0 .6-.4 1-1 1h-12a1 1 0 0 1-1-1v-12c0-.5.5-1 1-1zm21.7 0h12c.5 0 1 .5 1 1v12c0 .6-.5 1-1 1h-12a1 1 0 0 1-1-1v-12c0-.5.4-1 1-1zm21.7 0h12c.5 0 1 .5 1 1v12c0 .6-.5 1-1 1h-12a1 1 0 0 1-1-1v-12c0-.5.4-1 1-1zm21.6 0h24c.5 0 1 .5 1 1v12c0 .6-.5 1-1 1h-24a1 1 0 0 1-1-1v-12c0-.5.4-1 1-1zm-163.3-19.6h12c.6 0 1 .5 1 1v12c0 .6-.4 1-1 1h-12a1 1 0 0 1-1-1v-12c0-.5.5-1 1-1zm-21.9 0h12c.6 0 1 .5 1 1v12c0 .6-.4 1-1 1h-12a1 1 0 0 1-1-1v-12c0-.5.5-1 1-1zm43.8 0h12c.6 0 1 .5 1 1v12c0 .6-.4 1-1 1h-12a1 1 0 0 1-1-1v-12c0-.5.5-1 1-1zm21.9 0h12c.6 0 1 .5 1 1v12c0 .6-.4 1-1 1h-12a1 1 0 0 1-1-1v-12c0-.5.5-1 1-1zm21.9 0h12c.6 0 1 .5 1 1v12c0 .6-.4 1-1 1h-12a1 1 0 0 1-1-1v-12c0-.5.5-1 1-1zm22 0h12c.5 0 1 .5 1 1v12c0 .6-.5 1-1 1h-12a1 1 0 0 1-1-1v-12c0-.5.4-1 1-1zm21.9 0h12c.5 0 1 .5 1 1v12c0 .6-.5 1-1 1h-12a1 1 0 0 1-1-1v-12c0-.5.4-1 1-1zm21.9 0h12c.5 0 1 .5 1 1v12c0 .6-.5 1-1 1h-12a1 1 0 0 1-1-1v-12c0-.5.4-1 1-1zm21.9 0h12c.5 0 1 .5 1 1v12c0 .6-.5 1-1 1h-12a1 1 0 0 1-1-1v-12c0-.5.4-1 1-1zm21.9 0h12c.5 0 1 .5 1 1v12c0 .6-.5 1-1 1h-12a1 1 0 0 1-1-1v-12c0-.5.4-1 1-1zM197 225h170v13.4a4 4 0 0 1-4 4H201a4 4 0 0 1-4-4v-13.5z"/><path fill="#FFF" d="M197 224.9h170v2H197z" opacity=".1"/><path fill="#626C84" d="M363 238.4H201a4 4 0 0 1-4-4v4a4 4 0 0 0 4 4h162a4 4 0 0 0 4-4v-4a4 4 0 0 1-4 4z" opacity=".3"/><path fill="#46505C" d="M363 243.4H201a5 5 0 0 1-5-5v-13.5c0-.5.4-1 1-1h170c.6 0 1 .5 1 1v13.5a5 5 0 0 1-5 5zm-165-17.5v12.5a3 3 0 0 0 3 3h162a3 3 0 0 0 3-3v-12.5H198z"/><path fill="#E6F3FF" d="M247 344.3h70a2 2 0 0 1 2 2v47a2 2 0 0 1-2 2h-70a2 2 0 0 1-2-2v-47c0-1 .9-2 2-2z"/><path fill="#626C84" d="M317 395.8h-70a2.5 2.5 0 0 1-2.5-2.5v-47c0-1.4 1.1-2.5 2.5-2.5h70c1.4 0 2.5 1.1 2.5 2.5v47c0 1.4-1.1 2.5-2.5 2.5zm-70-51c-.8 0-1.5.7-1.5 1.5v47c0 .8.7 1.5 1.5 1.5h70c.8 0 1.5-.7 1.5-1.5v-47c0-.8-.7-1.5-1.5-1.5h-70z"/><circle cx="282" cy="80.1" r="3" fill="#FFF" opacity=".5"/><path fill="#46505C" d="M282 83.6a3.5 3.5 0 1 1 0-7 3.5 3.5 0 0 1 0 7zm0-6a2.5 2.5 0 1 0 0 5 2.5 2.5 0 0 0 0-5z"/><path fill="#FFF" d="M332.4 101.1h12c.5 0 1 .5 1 1 0 .6-.5 1-1 1h-12a1 1 0 0 1 0-2zm25.9 0h12a1 1 0 0 1 0 2h-12a1 1 0 0 1 0-2zm-51.9 0h12c.5 0 1 .5 1 1 0 .6-.5 1-1 1h-12a1 1 0 0 1 0-2z"/><circle cx="189.2" cy="102.7" r="4.8" fill="#FFF"/><path fill="#FFF" d="M231.3 155.6h101.2v3.6H231.3zm12.8-12.1h75.6v3.7h-75.6z" opacity=".7"/><path fill="#FFF" d="M299.4 195.4h-28.8a6 6 0 0 1 0-12h28.8a6 6 0 0 1 0 12zm-28.8-11a5 5 0 0 0 0 10h28.8a5 5 0 0 0 0-10h-28.8z"/></g></svg>