<svg width="639" height="324" xmlns="http://www.w3.org/2000/svg"><g fill="none" fill-rule="evenodd"><rect fill="#C9C9C9" fill-rule="nonzero" x=".2" y="305.3" width="638.3" height="18" rx="9"/><path d="M125.9 230.3a17.3 17.3 0 010-34.7h98v34.7h-98z" fill="#CECECE" fill-rule="nonzero"/><path d="M125.9 189.6h103.7v46.7H125.9a23.3 23.3 0 010-46.7z" fill="#FFF" fill-rule="nonzero"/><path d="M224 209.6H119.4a2 2 0 010-4H224a2 2 0 010 4zM224 220.2H119.4a2 2 0 010-4H224a2 2 0 010 4z" fill="#1F3969" fill-rule="nonzero"/><path d="M224 232.3h-98.1a19.3 19.3 0 010-38.7h98a2 2 0 012 2v34.7a2 2 0 01-2 2zm-98.1-34.7a15.3 15.3 0 000 30.7h96v-30.7h-96z" fill="#1F3969" fill-rule="nonzero"/><path d="M125.9 230.3a17.3 17.3 0 010-34.7h99.7l4-6H125.9a23.3 23.3 0 000 46.7h103.7l-4-6h-99.7z" fill="#FF3E3E" fill-rule="nonzero"/><path d="M229.6 238.3H125.9a25.3 25.3 0 010-50.7h103.7a2 2 0 011.7 3.1l-4 6a2 2 0 01-1.7.9h-99.7a15.3 15.3 0 000 30.7h99.7a2 2 0 011.7.9l4 6a2 2 0 01-1.7 3zm-103.7-46.7a21.3 21.3 0 000 42.7h100l-1.4-2H126a19.3 19.3 0 010-38.7h98.6l1.4-2h-100z" fill="#1F3969" fill-rule="nonzero"/><g opacity=".3" fill="#1F3969" fill-rule="nonzero"><path d="M188.9 189.6h18.4v46.7h-18.4z"/><path d="M207.3 238.3H189a2 2 0 01-2-2v-46.7c0-1.1 1-2 2-2h18.4a2 2 0 012 2v46.7a2 2 0 01-2 2zm-16.4-4h14.4v-42.7H191v42.7z"/></g><rect fill="#50B56F" fill-rule="nonzero" x="22.3" y="236.3" width="203.4" height="38.6" rx="6.8"/><path d="M219 276.8H29c-4.8 0-8.7-3.9-8.7-8.7v-25c0-4.9 3.9-8.8 8.7-8.8h190c4.8 0 8.7 4 8.7 8.8v25c0 4.8-4 8.7-8.8 8.7zM29 238.3a4.8 4.8 0 00-4.7 4.8v25c0 2.6 2.1 4.7 4.7 4.7h190c2.6 0 4.7-2 4.7-4.7v-25c0-2.7-2.1-4.8-4.8-4.8H29z" fill="#1F3969" fill-rule="nonzero"/><g opacity=".3" fill="#1F3969" fill-rule="nonzero"><path d="M219 236.3h-30v15a17 17 0 0017 17h19.7v-25.2c0-3.8-3-6.8-6.8-6.8z"/><path d="M225.7 270.3H206a19 19 0 01-19-19v-15c0-1.1.8-2 2-2h30c4.8 0 8.7 4 8.7 8.7v25.4c0 1-1 1.9-2 2zm-34.8-32v13a15 15 0 0015 15h17.8v-23.2c0-2.7-2.1-4.8-4.8-4.8h-28z"/></g><path d="M272.4 282.6h-220a32.8 32.8 0 010 22.7h220a32.8 32.8 0 010-22.7z" fill="#CECECE" fill-rule="nonzero"/><path fill="#5F5AFF" fill-rule="nonzero" d="M46.5 276.5h231.9v6H46.5z"/><path d="M278.4 284.6h-232a2 2 0 01-2-2v-6c0-1.2 1-2 2-2h232a2 2 0 012 2v6a2 2 0 01-2 2zm-230-4h228v-2h-228v2z" fill="#1F3969" fill-rule="nonzero"/><path fill="#F6F9FD" fill-rule="nonzero" d="M46.5 305.3h231.9v6H46.5z"/><path fill="#5F5AFF" fill-rule="nonzero" d="M46.5 305.3h231.9v6H46.5z"/><path d="M278.4 313.3h-232a2 2 0 01-2-2v-6c0-1.1 1-2 2-2h232a2 2 0 012 2v6a2 2 0 01-2 2zm-230-4h228v-2h-228v2z" fill="#1F3969" fill-rule="nonzero"/><path d="M393.6 290l-3-33.7h-49.4l-3 33.7a32 32 0 01-12.8 21.3h81a32 32 0 01-12.8-21.3z" fill="#BFCFE2" fill-rule="nonzero"/><g opacity=".3" fill="#1F3969" fill-rule="nonzero"><path d="M341.2 256.3l-1.8 20.2h53l-1.8-20.2z"/><path d="M392.4 278.5h-53a2 2 0 01-2-2.1l1.8-20.2c.1-1 1-1.9 2-1.9h49.4c1 0 2 .8 2 1.9l1.8 20.2a2 2 0 01-2 2.1zm-50.8-4h48.6l-1.4-16.2H343l-1.4 16.2z"/></g><path d="M406.4 313.3h-81a2 2 0 01-2-2.2c0-.5.4-1 .8-1.4a30 30 0 0012-19.9l3-33.6c.1-1 1-1.9 2-1.9h49.4c1 0 2 .8 2 1.9l3 33.6c.7 7 5 14.1 12 20 .5.2.7.7.8 1.2a2 2 0 01-.5 1.6 2 2 0 01-1.5.7zm-75.9-4h70.8c-5.7-5.7-9-12.4-9.7-19.1l-2.8-31.9H343l-2.8 31.9c-.6 6.7-4 13.4-9.7 19.1z" fill="#1F3969" fill-rule="nonzero"/><rect fill="#FFF" fill-rule="nonzero" x="195.9" y="31.3" width="340" height="230" rx="12"/><rect fill="#BFCFE2" fill-rule="nonzero" x="195.9" y="31.3" width="340" height="230" rx="12"/><path d="M524 263.3H208a14 14 0 01-14-14v-206a14 14 0 0114-14h316a14 14 0 0114 14v206a14 14 0 01-14 14zm-316-230a10 10 0 00-10 10v206a10 10 0 0010 10h316a10 10 0 0010-10v-206a10 10 0 00-10-10H208z" fill="#1F3969" fill-rule="nonzero"/><path fill="#F6F9FD" fill-rule="nonzero" d="M519 48.3V223H213V48.3z"/><g opacity=".3" fill="#1F3969" fill-rule="nonzero"><path d="M224 31.3V170a8 8 0 008 8h189a8 8 0 008-8V31.3H224z"/><path d="M421 180H232a10 10 0 01-10-10V31.2c0-1 .8-2 2-2h205a2 2 0 012 2V170a10 10 0 01-10 10zM226 33.2V170a6 6 0 006 6h189a6 6 0 006-6V33.3H226z"/></g><path d="M519 225H213a2 2 0 01-2-2V48.2c0-1 .8-2 2-2h306a2 2 0 012 2V223a2 2 0 01-2 2zm-304-4h302V50.2H215V221zM379.4 244h-27a2 2 0 010-4h27a2 2 0 010 4z" fill="#1F3969" fill-rule="nonzero"/><rect fill="#2D425E" fill-rule="nonzero" x="232.9" y="2.7" width="205.1" height="164.3" rx="8"/><path d="M438 24.1H233a2 2 0 01-2-2V10.7a10 10 0 0110-10h189a10 10 0 0110 10V22a2 2 0 01-2 2zm-203-4h201v-9.4a6 6 0 00-6-6H241a6 6 0 00-6 6V20z" fill="#1F3969" fill-rule="nonzero"/><path d="M241 2.7h189a8 8 0 018 8v15.2H233V10.7a8 8 0 018-8z" fill="#D0DDF0" fill-rule="nonzero"/><path d="M438 28H233a2 2 0 01-2-2V10.6a10 10 0 0110-10h189a10 10 0 0110 10v15.2a2 2 0 01-2 2zm-203-4h201V10.6a6 6 0 00-6-6H241a6 6 0 00-6 6v13.2z" fill="#1F3969" fill-rule="nonzero"/><path d="M438 28H233a2 2 0 01-2-2V10.6a10 10 0 0110-10h189a10 10 0 0110 10v15.2a2 2 0 01-2 2zm-203-4h201V10.6a6 6 0 00-6-6H241a6 6 0 00-6 6v13.2z" fill="#1F3969" fill-rule="nonzero"/><path d="M430 169H241a10 10 0 01-10-10V10.6a10 10 0 0110-10h189a10 10 0 0110 10v148.2a10 10 0 01-10 10zM241 4.6a6 6 0 00-6 6v148.2a6 6 0 006 6h189a6 6 0 006-6V10.7a6 6 0 00-6-6H241z" fill="#1F3969" fill-rule="nonzero"/><g opacity=".3" transform="translate(402 61)" fill="#1F3969" fill-rule="nonzero"><rect x="2.7" y="2.4" width="132" height="138.9" rx="8"/><path d="M126.7 143.3h-116a10 10 0 01-10-10V10.4a10 10 0 0110-10h116a10 10 0 0110 10v123a10 10 0 01-10 10zM10.7 4.4a6 6 0 00-6 6v123a6 6 0 006 6h116a6 6 0 006-6v-123a6 6 0 00-6-6h-116z"/></g><rect fill="#2AA1FF" fill-rule="nonzero" x="412.7" y="56.4" width="132" height="138.9" rx="8"/><path d="M536.7 197.3h-116a10 10 0 01-10-10V64.4a10 10 0 0110-10h116a10 10 0 0110 10v123a10 10 0 01-10 10zm-116-138.9a6 6 0 00-6 6v123a6 6 0 006 6h116a6 6 0 006-6v-123a6 6 0 00-6-6h-116z" fill="#1F3969" fill-rule="nonzero"/><rect stroke="#FFF" stroke-width="2" opacity=".3" style="mix-blend-mode:screen" stroke-linecap="round" stroke-linejoin="round" x="432.7" y="76.3" width="91.9" height="18.1" rx="5.2"/><g opacity=".3" style="mix-blend-mode:screen" transform="translate(432 105)" stroke="#FFF" stroke-linecap="round" stroke-linejoin="round" stroke-width="2"><rect x=".8" y=".6" width="56" height="18.1" rx="5.2"/><rect x="64.7" y=".6" width="28" height="18.1" rx="5.2"/></g><path stroke="#FFF" stroke-width="2" stroke-linecap="round" stroke-linejoin="round" d="M432.7 154.2h91.9M432.7 165h91.9M432.7 175.8h56"/><circle fill="#1F3969" fill-rule="nonzero" cx="253" cy="14.3" r="4"/><circle fill="#1F3969" fill-rule="nonzero" cx="266.9" cy="14.3" r="4"/><circle fill="#1F3969" fill-rule="nonzero" cx="280.8" cy="14.3" r="4"/><path stroke="#FFF" stroke-width="4" stroke-linecap="round" stroke-linejoin="round" d="M350.7 44.4h13"/><path stroke="#7BFFA0" stroke-width="4" stroke-linecap="round" stroke-linejoin="round" d="M284.8 44.4h56.3"/><path stroke="#9169FF" stroke-width="4" stroke-linecap="round" stroke-linejoin="round" d="M257 44.4h19.8M282.8 142.9h43"/><path stroke="#7BFFA0" stroke-width="4" stroke-linecap="round" stroke-linejoin="round" d="M257 142.9h13.9"/><path stroke="#FFF" stroke-width="4" stroke-linecap="round" stroke-linejoin="round" d="M341.1 56.7h8.1"/><path stroke="#9169FF" stroke-width="4" stroke-linecap="round" stroke-linejoin="round" d="M304.3 56.7h27.2"/><path stroke="#FFC47D" stroke-width="4" stroke-linecap="round" stroke-linejoin="round" d="M266.9 56.7h27.7"/><path stroke="#FFF" stroke-width="4" stroke-linecap="round" stroke-linejoin="round" d="M309.8 69h23.9"/><path stroke="#FF5757" stroke-width="4" stroke-linecap="round" stroke-linejoin="round" d="M279.8 69h22.5"/><path stroke="#FFF" stroke-width="4" stroke-linecap="round" stroke-linejoin="round" d="M313 81.3h4.9"/><path stroke="#9169FF" stroke-width="4" stroke-linecap="round" stroke-linejoin="round" d="M293.2 81.3h11.1"/><path stroke="#7BFFA0" stroke-width="4" stroke-linecap="round" stroke-linejoin="round" d="M266.9 81.3h17.9"/><path stroke="#FFC47D" stroke-width="4" stroke-linecap="round" stroke-linejoin="round" d="M305.3 93.7h31.9"/><path stroke="#FF5757" stroke-width="4" stroke-linecap="round" stroke-linejoin="round" d="M266.9 93.7h28.6"/><path stroke="#9169FF" stroke-width="4" stroke-linecap="round" stroke-linejoin="round" d="M342.2 106h17.3"/><path stroke="#FF5757" stroke-width="4" stroke-linecap="round" stroke-linejoin="round" d="M305.3 106H333"/><path stroke="#7BFFA0" stroke-width="4" stroke-linecap="round" stroke-linejoin="round" d="M279.8 106h15.7"/><path stroke="#FFF" stroke-width="4" stroke-linecap="round" stroke-linejoin="round" d="M317.9 118.3H333"/><path stroke="#9169FF" stroke-width="4" stroke-linecap="round" stroke-linejoin="round" d="M279.8 118.3h27.7"/><path stroke="#FFF" stroke-width="4" stroke-linecap="round" stroke-linejoin="round" d="M357.2 130.6h17.3"/><path stroke="#FFC47D" stroke-width="4" stroke-linecap="round" stroke-linejoin="round" d="M304.3 130.6h43.5"/><path stroke="#FFF" stroke-width="4" stroke-linecap="round" stroke-linejoin="round" d="M266.9 130.6h27.7"/><path d="M270.4 291.5H54.9a2 2 0 010-4h215.5a2 2 0 010 4zM270.4 299.5H54.9a2 2 0 010-4h215.5a2 2 0 010 4z" fill="#1F3969" fill-rule="nonzero"/><path d="M272.4 307.3h-220a2 2 0 01-1.8-2.7 30.8 30.8 0 000-21.3 2 2 0 011.8-2.7h220a2 2 0 011.9 2.7 30.8 30.8 0 000 21.3 2 2 0 01-2 2.7zm-217.2-4h214.4a35.6 35.6 0 010-18.7H55.2a35.6 35.6 0 010 18.7z" fill="#1F3969" fill-rule="nonzero"/><path fill="#FFA364" fill-rule="nonzero" d="M558.6 202.2l9.7-1.1 8.5 72.2-9.7 1.1z"/><path fill="#2AA1FF" fill-rule="nonzero" d="M558.6 202.3l9.7-1.2.9 7.4-9.7 1.1z"/><path d="M559.4 211.6a2 2 0 01-2-1.8l-.8-7.3a2 2 0 011.7-2.2l9.8-1.2a2 2 0 012.2 1.8l.9 7.3a2 2 0 01-1.8 2.2l-9.7 1.2h-.3zm1.4-7.6l.4 3.4 5.7-.7-.3-3.4-5.8.7z" fill="#1F3969" fill-rule="nonzero"/><path d="M567 276.4a2 2 0 01-2-1.7l-8.4-72.2a2 2 0 011.7-2.2l9.8-1.2a2 2 0 012.2 1.8l8.5 72.1a2 2 0 01-1.8 2.3l-9.7 1.1h-.3zm-6.2-72.4l8 68.2 5.8-.7-8-68.2-5.8.7z" fill="#1F3969" fill-rule="nonzero"/><path fill="#FF5252" fill-rule="nonzero" d="M585.4 214.8l9.7 1-7.9 72.3-9.7-1z"/><path d="M587.3 290h-.2l-9.8-1a2 2 0 01-1.7-2.2l7.8-72.3a2 2 0 012.2-1.7l9.8 1a2 2 0 011.7 2.2l-7.8 72.2a2 2 0 01-2 1.8zm-7.6-4.8l5.8.6 7.4-68.2-5.7-.6-7.5 68.2z" fill="#1F3969" fill-rule="nonzero"/><path fill="#2D425E" fill-rule="nonzero" d="M585.4 214.8l9.8 1-.8 7.4-9.8-1z"/><path d="M594.4 225.2h-.3l-9.7-1.1a2 2 0 01-1.8-2.2l.8-7.4a2 2 0 012.2-1.7l9.8 1a2 2 0 011.7 2.2l-.8 7.4a2 2 0 01-2 1.8zm-7.6-4.9l5.8.7.3-3.4-5.7-.6-.4 3.3z" fill="#1F3969" fill-rule="nonzero"/><path fill="#6567C3" fill-rule="nonzero" d="M601 311.6h-39.2l-6.4-60.2h52z"/><path fill="#6567C3" fill-rule="nonzero" style="mix-blend-mode:overlay" d="M555.4 251.4l.1 1h39.7l-6.3 59.2h12.2l6.4-60.2z"/><path d="M601 313.6h-39.2a2 2 0 01-2-1.8l-6.4-60.2a2 2 0 012-2.2h52a2 2 0 012 2.2l-6.3 60.2a2 2 0 01-2 1.8zm-37.4-4h35.7l6-56.2h-47.7l6 56.2z" fill="#1F3969" fill-rule="nonzero"/></g></svg>